{"glyphs":{"0":{"ha":826,"x_min":30,"x_max":805,"o":"m 805 400 q 777 210 805 280 q 699 63 730 124 q 682 9 687 40 q 676 -55 676 -22 q 680 -135 676 -87 q 684 -187 684 -184 q 677 -230 684 -217 q 650 -244 670 -244 q 615 -204 615 -244 q 638 -94 630 -132 q 662 42 662 25 l 657 63 l 647 63 q 616 45 632 49 q 591 37 600 40 q 558 -27 566 15 q 549 -121 549 -69 l 549 -148 q 540 -169 548 -160 q 533 -226 533 -178 q 512 -230 522 -227 q 503 -214 509 -230 q 488 -118 488 -171 q 500 -69 488 -105 q 507 -33 507 -46 l 488 16 q 467 7 477 13 q 430 1 456 1 q 293 35 371 1 q 165 114 216 69 q 61 263 102 168 q 30 376 30 338 l 30 557 q 51 657 40 618 q 138 855 82 772 q 207 947 189 931 q 256 983 229 962 q 322 1030 299 1019 q 339 1037 332 1034 q 351 1063 346 1040 q 371 1087 356 1087 q 491 1027 418 1087 q 703 783 587 949 q 777 606 748 718 q 805 400 805 494 m 570 470 q 530 769 570 660 q 450 886 501 847 q 400 916 425 901 q 287 712 343 814 q 248 530 248 618 q 316 298 248 397 q 474 171 403 171 q 541 276 512 171 q 570 470 570 382 m 452 843 q 445 785 452 817 q 421 753 437 753 q 396 763 403 753 q 389 790 389 774 q 397 830 389 808 q 416 876 406 852 l 431 876 q 443 864 434 873 q 452 843 452 855 z "},"1":{"ha":281,"x_min":22,"x_max":253,"o":"m 253 88 q 242 28 253 55 q 207 1 232 1 q 94 70 151 1 q 22 293 22 157 q 30 485 27 421 q 45 706 39 676 q 61 905 51 736 q 127 1075 72 1075 q 202 1000 169 1075 q 244 750 244 907 q 246 520 244 593 q 248 416 248 447 q 251 216 248 328 q 253 88 253 103 m 232 -84 q 220 -156 232 -129 q 213 -172 216 -163 q 220 -189 217 -180 q 229 -235 229 -210 q 205 -216 211 -219 q 193 -216 199 -216 q 198 -224 196 -220 q 224 -298 213 -257 l 205 -298 q 196 -260 202 -293 q 181 -109 181 -186 q 189 -65 181 -93 q 208 -37 198 -37 q 225 -51 219 -37 q 232 -84 232 -64 z "},"2":{"ha":988,"x_min":18,"x_max":968,"o":"m 968 87 q 965 49 968 63 q 956 -126 956 9 l 944 -130 q 926 -117 929 -130 q 922 -49 922 -103 l 922 51 q 901 55 911 52 q 867 -2 879 55 q 841 -81 856 -60 q 825 -37 831 -61 q 816 24 820 -13 l 440 0 q 262 15 374 0 q 75 66 114 34 q 58 38 61 51 q 51 15 55 25 q 28 55 39 28 q 18 103 18 82 q 61 171 18 132 q 166 268 151 253 q 229 352 187 289 q 302 464 265 404 q 425 678 383 594 q 488 874 488 805 q 480 921 488 908 q 443 934 473 934 q 382 919 428 934 q 236 873 266 882 q 185 860 207 864 q 144 856 163 856 q 103 859 112 859 q 84 852 91 859 q 55 811 76 844 q 31 850 37 822 q 24 914 24 879 q 97 1007 24 953 q 347 1081 196 1081 q 627 943 518 1081 q 720 697 720 826 q 663 516 720 612 q 519 298 591 407 q 816 257 756 275 q 968 87 968 211 m 99 670 q 91 649 99 657 q 69 641 82 641 q 27 712 27 641 q 55 792 27 754 q 82 730 64 783 q 99 670 99 678 m 968 -236 q 947 -271 968 -271 q 932 -256 937 -263 q 916 -196 916 -232 q 920 -178 919 -189 q 922 -145 922 -168 q 956 -181 943 -154 q 968 -236 968 -208 m 867 -199 q 861 -233 867 -224 q 837 -242 855 -242 q 813 -227 822 -242 q 805 -201 805 -213 q 814 -177 811 -186 q 837 -130 823 -157 q 861 -158 855 -141 q 867 -199 867 -175 m 63 -163 q 60 -182 63 -171 q 55 -201 57 -193 q 30 -176 36 -193 q 24 -127 24 -159 l 39 -40 l 51 -40 l 63 -163 z "},"3":{"ha":754,"x_min":15,"x_max":736,"o":"m 736 280 q 730 232 736 272 q 711 153 723 192 q 709 135 709 148 q 714 82 709 120 q 717 33 718 45 q 705 10 709 19 q 691 -16 693 -9 q 697 -37 690 -22 q 703 -60 703 -51 q 693 -119 703 -91 q 669 -147 682 -147 q 644 -129 653 -147 q 636 -91 636 -112 q 654 -34 636 -61 q 672 -4 672 -7 q 666 30 669 19 q 638 64 656 64 q 621 52 627 57 q 599 23 602 37 q 596 -40 597 9 q 596 -108 596 -90 q 599 -172 596 -157 l 561 -172 q 540 -115 540 -138 q 551 -84 540 -105 q 561 -40 561 -63 q 542 -1 561 -12 q 494 10 522 10 q 461 8 474 10 q 433 3 447 6 q 169 76 260 3 q 79 180 102 160 q 63 150 67 159 q 42 135 54 135 q 15 196 15 135 q 21 223 15 207 q 28 239 22 227 q 24 278 30 247 q 18 322 18 310 q 46 355 18 355 q 201 271 118 307 q 362 229 295 229 q 482 254 447 229 q 516 346 516 280 q 477 455 516 395 q 385 524 433 524 l 251 524 q 190 542 232 524 q 142 560 148 560 q 129 546 139 560 q 112 533 118 533 q 99 543 106 533 q 79 623 79 570 q 139 682 79 662 q 305 754 253 723 q 371 799 358 789 q 410 867 410 832 q 385 897 410 889 q 313 905 359 905 q 244 904 280 905 q 172 901 208 902 q 69 916 103 901 q 24 983 24 935 q 108 1037 24 1003 q 331 1081 213 1081 q 560 956 459 1081 q 645 765 645 850 q 627 681 645 715 q 584 614 605 647 q 650 539 618 578 q 700 453 687 494 q 723 364 709 431 q 736 280 736 298 m 135 470 l 120 385 l 100 385 q 96 425 96 407 q 98 468 96 442 q 100 500 100 495 l 120 500 q 128 482 126 486 q 135 470 130 477 m 88 -13 q 79 -33 88 -22 q 58 -43 70 -43 q 34 -22 40 -43 q 27 30 27 -1 q 34 73 30 49 q 45 108 37 96 q 74 53 60 99 q 88 -13 88 7 z "},"4":{"ha":994,"x_min":22,"x_max":977,"o":"m 977 251 l 961 248 q 936 272 950 248 q 922 320 922 296 q 931 344 928 335 q 941 403 941 377 q 940 416 941 406 q 938 445 938 427 q 926 450 929 450 q 870 418 885 450 q 856 331 856 385 l 856 283 l 871 -257 l 853 -262 q 834 -247 840 -253 q 814 -207 814 -227 l 814 -94 q 822 -73 814 -88 q 829 -48 829 -58 q 828 -16 829 -31 q 828 13 828 -1 l 780 13 q 769 -42 780 -24 q 757 -87 757 -60 q 770 -132 757 -115 q 783 -166 783 -148 l 780 -201 l 763 -199 q 735 -176 741 -199 q 729 -114 729 -153 l 729 -1 q 669 88 697 36 q 634 210 641 141 q 624 335 627 278 q 585 425 612 425 l 295 425 q 262 405 281 413 q 211 397 242 397 q 165 415 184 397 q 97 467 109 464 q 91 412 91 443 q 97 356 91 383 q 108 304 102 329 q 90 284 108 284 q 55 302 64 284 q 45 350 45 320 q 48 397 45 373 q 51 425 51 422 q 30 492 37 465 q 22 543 22 519 q 67 624 22 548 q 174 808 126 721 q 251 940 239 922 q 361 1034 316 1034 q 412 998 385 1034 q 445 895 445 953 q 422 795 430 829 q 383 669 397 691 l 383 644 l 632 639 q 641 737 639 712 q 642 786 642 762 l 642 805 q 646 851 642 822 q 663 970 650 880 q 682 1031 668 1004 q 730 1067 703 1067 q 837 757 795 1067 q 843 676 843 709 q 843 660 843 666 q 841 650 843 654 q 938 558 899 599 q 977 467 977 516 l 977 251 z "},"5":{"ha":820,"x_min":16,"x_max":804,"o":"m 804 700 q 783 696 793 697 q 757 712 765 696 q 748 753 748 727 q 756 831 748 768 q 759 874 759 856 q 742 905 759 905 q 714 898 736 905 q 678 891 691 891 l 618 891 l 569 891 l 528 891 l 494 891 l 465 891 l 440 891 l 418 891 l 398 891 l 380 891 q 322 891 352 891 q 260 892 292 891 l 241 892 q 248 826 241 870 q 256 727 256 783 q 277 724 266 724 q 302 729 286 729 q 382 706 326 729 q 430 687 406 696 q 617 539 551 635 q 682 314 682 443 q 668 228 682 284 q 635 135 653 172 q 614 33 618 99 q 593 -54 609 -33 q 566 4 572 -39 q 557 57 561 46 q 424 7 482 9 q 367 -30 367 4 q 385 -94 379 -51 q 392 -220 392 -138 q 383 -251 392 -235 q 351 -221 359 -242 q 343 -165 343 -199 q 343 -132 343 -148 q 344 -100 343 -117 q 332 -21 344 -48 q 268 36 316 18 q 102 138 162 78 q 33 289 33 205 q 40 337 33 320 q 69 353 48 353 q 168 287 93 353 q 317 222 242 222 q 389 314 350 222 q 428 474 428 406 q 388 567 428 540 q 301 588 356 588 q 247 584 278 588 q 211 579 216 579 q 99 641 130 579 q 75 781 75 687 q 76 841 75 801 q 78 901 78 882 q 47 967 78 946 q 16 1006 16 988 q 82 1048 16 1030 q 236 1066 148 1066 q 318 1071 251 1066 q 464 1084 385 1076 q 657 1045 557 1084 q 799 895 799 989 q 789 861 799 877 q 774 838 778 844 q 795 801 790 820 q 804 762 799 781 l 804 700 m 648 -180 q 638 -222 648 -210 q 609 -235 629 -235 q 574 -207 581 -235 q 567 -145 567 -178 q 572 -96 567 -121 q 591 -70 576 -70 q 626 -105 603 -70 q 648 -180 648 -139 z "},"6":{"ha":796,"x_min":27,"x_max":772,"o":"m 772 275 q 763 186 772 248 q 742 60 753 124 l 769 -144 q 762 -159 769 -151 q 747 -166 754 -166 q 716 -144 726 -166 q 706 -87 706 -121 q 712 -16 706 -52 q 720 16 714 -4 q 709 45 720 24 q 687 66 697 66 q 659 42 659 66 q 663 19 659 31 q 672 -3 668 6 q 668 -33 675 -21 q 656 -54 660 -45 q 665 -171 656 -129 q 685 -239 675 -205 q 677 -263 685 -253 q 654 -274 669 -274 q 641 -269 644 -274 q 632 -254 632 -256 q 612 -214 612 -230 q 622 -191 612 -202 q 632 -178 632 -180 q 627 -165 629 -171 q 615 -49 615 -120 q 598 -5 615 -13 q 536 3 581 3 l 510 3 q 392 15 440 3 q 239 90 317 34 q 80 261 133 169 q 27 455 27 353 q 57 651 27 551 q 123 807 82 738 q 251 980 177 899 q 407 1079 344 1079 q 526 1045 462 1079 q 642 955 590 1012 q 700 864 685 908 q 711 789 711 832 l 711 754 q 712 728 711 741 q 720 702 712 715 l 720 682 l 693 678 q 665 688 673 678 q 657 715 657 697 q 660 739 657 729 q 666 759 663 750 q 622 819 666 816 q 549 837 578 823 q 437 916 482 868 q 409 934 421 934 q 370 899 386 934 q 280 682 325 790 q 458 664 368 682 q 620 590 548 645 q 744 416 703 524 q 772 275 772 340 m 527 296 q 457 489 527 403 q 319 575 388 575 q 272 565 284 575 q 259 524 259 555 q 279 421 259 485 q 329 310 299 356 q 379 242 358 263 q 489 187 431 187 q 518 226 509 187 q 527 296 527 265 z "},"7":{"ha":874,"x_min":15,"x_max":849,"o":"m 849 919 q 799 838 829 889 q 732 669 765 781 l 656 409 q 593 248 635 337 q 497 51 545 150 q 492 13 492 30 q 495 -16 492 3 q 497 -40 497 -36 q 486 -71 495 -45 q 476 -105 476 -97 q 489 -154 476 -118 q 497 -186 497 -175 q 468 -223 497 -223 q 439 -201 453 -223 q 425 -142 425 -178 q 446 -76 425 -123 q 456 -34 456 -54 q 454 -12 456 -22 q 446 10 452 -1 q 419 -30 419 -13 q 422 -49 422 -43 q 401 -81 422 -64 q 385 -22 386 -70 q 351 50 383 25 q 304 96 319 75 q 275 181 275 135 q 304 272 275 214 q 332 346 332 331 l 537 832 l 537 859 l 190 859 q 141 868 171 859 q 88 885 112 877 q 78 838 82 856 q 58 820 73 820 q 32 890 49 820 q 15 970 15 959 q 114 1049 15 1019 q 419 1079 214 1079 q 681 1060 593 1079 q 849 919 849 1022 m 76 706 q 70 685 76 694 q 40 670 60 670 q 22 685 28 670 q 15 721 15 700 q 23 763 15 735 q 42 804 31 792 q 69 744 58 786 q 76 706 72 730 m 416 -159 q 400 -183 416 -183 q 377 -171 383 -183 q 370 -148 373 -154 l 374 -117 q 402 -134 388 -121 q 416 -159 416 -147 z "},"8":{"ha":730,"x_min":19,"x_max":703,"o":"m 703 219 q 659 114 703 151 q 614 13 614 76 l 588 13 q 579 40 585 24 q 569 66 573 55 q 549 41 555 54 q 542 16 542 28 q 549 -18 542 7 q 557 -63 557 -43 q 550 -100 557 -79 q 537 -139 543 -120 q 558 -168 537 -147 q 569 -190 569 -178 q 560 -209 569 -201 q 539 -217 552 -217 q 508 -175 521 -217 q 495 -66 495 -133 q 481 -11 495 -48 q 452 25 467 25 q 427 13 437 16 q 343 0 388 0 q 265 13 302 0 q 123 96 204 34 q 44 186 69 135 q 19 301 19 236 q 51 428 19 370 q 123 542 87 485 q 57 644 84 596 q 25 748 25 697 q 60 867 25 817 q 174 967 94 916 q 268 1025 238 1010 q 385 1052 323 1052 q 385 1076 385 1067 l 416 1094 q 567 1028 492 1094 q 663 813 663 944 q 650 754 656 786 q 644 688 644 723 q 644 638 644 663 q 650 597 648 611 l 638 593 q 615 635 624 593 q 593 697 606 676 q 531 629 585 690 q 477 567 513 609 q 519 531 503 548 q 624 406 569 483 q 677 308 651 365 q 703 219 703 251 m 633 -76 q 609 -106 633 -106 q 590 -94 594 -106 q 587 -60 587 -82 q 590 -27 587 -33 q 608 -21 594 -21 q 627 -38 621 -21 q 633 -76 633 -55 m 492 923 q 446 986 492 986 l 436 982 q 418 893 436 961 q 391 825 401 825 q 364 850 364 825 q 374 876 371 867 q 385 932 385 905 l 370 947 q 272 844 320 895 q 208 732 208 769 q 236 708 227 715 q 272 684 266 684 q 385 769 289 684 q 477 856 416 798 q 487 884 482 862 q 492 923 492 905 m 440 193 q 401 317 440 266 q 320 385 374 352 q 275 337 298 361 q 238 268 238 293 q 270 186 238 217 q 377 156 302 156 q 421 163 403 156 q 440 193 440 171 z "},"9":{"ha":700,"x_min":19,"x_max":676,"o":"m 676 780 l 660 418 q 644 253 651 331 q 626 87 629 96 q 608 27 614 49 q 590 -76 590 -40 q 584 -94 588 -85 q 573 -112 573 -111 q 576 -147 570 -120 q 582 -181 582 -174 q 548 -213 582 -213 q 526 -198 533 -213 q 519 -163 519 -183 q 528 -129 519 -141 q 548 -42 548 -103 q 533 14 548 -3 q 494 36 518 31 q 476 28 486 37 q 459 19 465 19 q 412 204 436 19 q 415 262 410 219 q 428 397 428 385 q 344 413 373 409 q 251 430 259 430 q 219 384 230 430 q 186 338 207 338 q 157 367 157 338 q 159 391 157 373 q 160 421 160 410 q 153 475 160 450 q 123 529 147 500 q 60 632 100 558 q 19 726 19 706 q 87 940 19 843 q 379 1081 184 1081 q 464 1069 425 1081 q 525 1042 494 1055 q 545 1063 534 1042 q 579 1084 555 1084 q 645 1021 621 1084 q 676 780 676 940 m 201 278 q 180 256 201 256 q 153 275 169 256 l 153 307 q 175 313 163 310 q 194 302 187 313 q 201 278 201 292 m 480 -78 q 476 -99 477 -93 q 458 -121 468 -121 q 431 -60 439 -121 q 428 -30 431 -49 q 436 -18 433 -21 q 450 -6 445 -6 q 475 -26 470 -6 q 480 -78 480 -46 m 497 888 q 465 941 497 910 q 409 973 434 973 q 291 879 356 973 q 226 723 226 784 q 254 659 226 688 q 305 630 281 630 l 416 630 q 441 650 424 639 q 462 670 458 660 q 482 786 465 679 q 497 888 486 820 z "}," ":{"ha":748,"x_min":0,"x_max":0,"o":""},"!":{"ha":352,"x_min":30,"x_max":326,"o":"m 326 144 q 302 106 326 106 q 280 111 293 106 q 275 82 275 97 q 287 34 275 63 q 295 13 295 16 l 295 -132 q 269 -147 280 -147 q 240 -91 244 -147 q 222 4 236 -34 q 136 30 183 -6 q 81 144 81 72 q 91 186 81 162 q 118 210 102 210 q 207 180 151 210 q 260 145 219 172 l 271 160 q 214 207 233 181 q 202 219 205 217 q 180 219 190 219 q 137 233 160 219 q 78 307 114 248 q 37 418 37 373 l 37 626 q 34 633 37 629 q 30 641 31 638 q 41 745 37 682 q 45 880 45 807 l 66 1054 q 96 1081 75 1073 q 132 1090 117 1090 q 222 1000 181 1090 q 295 656 274 886 q 297 595 296 635 q 299 525 298 555 l 299 479 q 281 292 299 374 q 263 230 275 265 q 275 180 272 208 q 287 181 281 181 q 296 181 293 181 q 326 144 326 181 z "},"\"":{"ha":617,"x_min":24,"x_max":599,"o":"m 599 1001 q 549 889 599 974 q 450 790 492 790 q 415 797 424 790 q 407 825 407 804 q 439 864 407 835 q 455 896 455 879 q 398 929 455 911 q 341 980 341 947 q 383 1096 341 1060 q 465 1122 415 1122 q 561 1078 519 1122 q 599 1001 599 1037 m 281 1007 q 232 895 281 980 q 133 796 175 796 q 98 803 106 796 q 90 831 90 810 q 121 870 90 841 q 138 902 138 885 q 81 935 138 917 q 24 986 24 953 q 66 1102 24 1066 q 148 1128 97 1128 q 244 1084 202 1128 q 281 1007 281 1043 z "},"#":{"ha":407,"x_min":0,"x_max":0,"o":""},"$":{"ha":681,"x_min":30,"x_max":653,"o":"m 239 672 l 239 763 q 213 723 227 748 q 201 699 208 715 q 208 686 201 691 q 239 672 216 681 m 443 445 q 438 462 443 458 q 403 482 433 467 l 407 386 q 430 409 418 392 q 443 445 443 425 m 238 528 l 220 528 q 96 584 133 564 q 30 688 30 620 q 90 819 30 756 q 168 896 139 868 q 198 922 183 913 q 226 938 213 931 q 233 971 233 950 q 229 1012 233 985 q 224 1051 224 1039 q 231 1079 224 1070 q 260 1088 238 1088 q 331 1064 308 1088 q 373 991 352 1027 q 397 980 380 985 q 440 958 413 976 q 539 864 494 922 q 584 784 584 807 q 578 760 584 780 q 563 711 563 712 l 584 662 q 575 640 584 650 q 554 630 567 630 q 528 672 528 630 q 530 705 530 694 q 529 725 530 715 q 521 739 528 735 q 495 740 513 744 q 468 739 477 736 q 427 774 465 741 q 388 801 404 793 l 383 703 q 389 663 389 679 q 388 624 388 644 q 578 516 503 569 q 653 398 653 462 q 606 254 653 314 q 525 162 566 208 q 513 126 513 142 q 516 104 513 121 q 516 76 519 87 l 501 76 q 485 96 489 88 q 476 118 476 109 q 480 133 476 123 q 488 157 485 144 q 481 162 485 160 q 470 163 477 163 q 439 150 459 163 q 416 129 418 136 q 421 84 413 115 q 428 37 428 52 q 425 14 428 22 q 409 -13 422 6 q 395 -49 395 -31 q 403 -80 395 -70 q 416 -100 410 -90 l 416 -120 q 397 -124 400 -124 q 367 -114 379 -124 q 356 -72 356 -105 q 358 -28 358 -42 q 355 -4 358 -12 l 344 -4 l 326 -34 l 311 -34 l 314 1 q 308 13 314 7 q 278 48 283 39 q 261 91 265 69 q 257 132 257 112 q 250 157 257 151 q 204 174 229 162 q 151 209 180 186 q 87 277 123 232 q 30 401 30 350 q 33 427 30 415 q 51 439 36 439 q 141 401 75 439 q 244 323 195 370 q 260 343 254 335 q 265 368 265 350 l 265 394 q 258 505 265 471 q 242 539 251 539 q 238 528 238 539 z "},"%":{"ha":407,"x_min":0,"x_max":0,"o":""},"&":{"ha":832,"x_min":40,"x_max":816,"o":"m 816 349 q 806 277 810 334 q 802 102 802 220 l 789 97 q 766 112 777 97 q 754 138 754 127 q 765 160 762 153 q 775 202 775 186 q 769 221 775 211 q 760 233 762 230 q 725 165 739 217 q 699 112 711 112 q 678 126 691 112 q 610 52 644 106 q 576 -40 576 -3 q 582 -54 581 -49 q 600 -112 600 -91 q 596 -144 600 -138 q 569 -156 587 -156 q 535 -141 545 -156 q 525 -100 525 -126 q 530 -67 525 -84 l 530 19 l 500 19 q 454 4 479 9 q 400 -1 430 -1 q 292 25 350 -1 q 157 121 222 58 q 75 248 109 169 q 40 373 40 326 q 70 498 40 445 q 138 606 103 552 q 90 691 111 647 q 69 772 69 735 q 217 1016 69 916 q 400 1093 329 1093 q 552 1039 456 1093 q 676 876 676 968 q 662 816 676 852 q 648 762 648 780 q 649 752 648 757 q 663 723 650 747 l 663 668 q 632 692 638 676 q 623 723 626 708 q 617 712 618 715 q 596 699 609 699 q 566 720 576 699 q 555 759 555 741 q 563 792 555 768 q 570 825 570 817 q 510 882 570 831 q 388 989 449 934 q 304 870 349 953 q 253 709 253 772 q 274 684 253 688 q 302 684 287 684 q 325 673 307 684 q 343 663 331 670 q 352 672 347 670 q 373 678 362 678 q 456 646 418 678 q 494 582 494 614 q 488 467 491 525 q 480 388 485 409 q 469 385 473 388 q 464 382 465 383 q 434 403 453 382 q 422 427 422 416 q 440 476 422 433 q 449 503 449 497 q 442 519 449 510 q 428 536 434 528 q 316 445 376 509 q 265 346 265 389 q 318 230 265 278 q 427 183 371 183 q 504 210 470 183 q 576 284 527 227 q 534 317 549 307 q 506 373 506 340 q 522 398 506 394 q 570 403 539 403 q 632 420 596 412 q 700 428 669 428 q 781 409 747 428 q 816 349 816 389 m 712 -1 q 709 -56 712 -40 q 685 -72 705 -72 q 668 -37 668 -72 l 668 -7 q 668 33 668 15 q 682 76 669 51 q 704 52 694 67 q 714 18 714 37 q 712 -1 712 1 m 618 759 l 618 780 l 618 759 z "},"'":{"ha":305,"x_min":24,"x_max":281,"o":"m 281 1007 q 232 895 281 980 q 133 796 175 796 q 98 803 106 796 q 90 831 90 810 q 121 870 90 841 q 138 902 138 885 q 81 935 138 917 q 24 986 24 953 q 66 1102 24 1066 q 148 1128 97 1128 q 244 1084 202 1128 q 281 1007 281 1043 z "},"(":{"ha":425,"x_min":21,"x_max":418,"o":"m 418 -236 q 409 -274 418 -268 q 380 -280 401 -280 q 337 -207 337 -280 q 353 -127 349 -154 q 371 -34 371 -40 q 367 -22 371 -27 q 359 -10 364 -18 l 337 -10 q 334 -42 334 -21 q 335 -70 334 -54 q 337 -105 335 -85 q 317 -133 337 -133 q 297 -122 302 -133 q 292 -88 292 -111 l 292 -61 q 287 -13 292 -36 q 265 28 281 9 q 226 69 254 36 q 144 172 181 120 q 60 322 93 239 q 21 506 21 419 q 47 670 21 575 q 105 834 73 765 q 202 986 130 886 q 325 1111 292 1111 q 353 1087 332 1111 q 374 1048 374 1063 q 286 748 325 905 q 247 480 247 590 q 324 177 247 332 q 401 -18 401 21 q 397 -106 401 -78 q 385 -151 391 -129 q 401 -189 385 -163 q 418 -236 418 -214 z "},")":{"ha":455,"x_min":22,"x_max":437,"o":"m 437 436 q 406 239 437 338 q 284 34 365 115 q 195 -15 256 6 q 151 -54 151 -30 q 159 -117 151 -61 q 168 -177 168 -174 q 136 -219 168 -219 q 108 -202 120 -219 q 96 -177 96 -186 l 96 -16 q 157 183 130 70 q 184 394 184 296 q 133 742 184 557 q 22 1090 78 916 q 31 1108 22 1097 q 48 1118 39 1118 q 183 1036 132 1087 q 338 808 268 952 q 392 660 359 766 q 437 436 437 515 m 223 -90 q 221 -101 223 -96 q 217 -111 219 -106 l 196 -111 q 193 -84 193 -93 q 196 -60 193 -72 q 219 -73 214 -67 q 223 -90 223 -79 z "},"*":{"ha":407,"x_min":0,"x_max":0,"o":""},"+":{"ha":533,"x_min":27,"x_max":509,"o":"m 509 534 q 498 483 509 498 q 477 455 486 467 q 477 433 477 445 q 477 407 477 422 q 474 355 477 376 q 455 311 470 334 l 445 311 q 437 337 437 328 q 442 352 437 340 q 446 383 446 364 q 437 427 446 398 q 418 455 428 455 q 349 368 352 455 q 310 281 346 281 q 221 333 244 281 q 178 433 198 385 q 136 455 159 442 q 85 495 114 468 q 81 482 82 488 q 96 455 81 479 q 105 427 105 440 q 99 404 105 416 q 82 392 93 392 q 67 411 72 392 q 61 456 61 430 q 63 495 61 486 q 64 515 64 503 q 46 556 64 542 q 27 596 27 570 q 55 632 27 617 q 127 647 84 647 q 169 642 147 647 q 175 685 175 665 q 174 700 175 688 q 174 714 172 711 q 215 789 181 760 q 283 817 248 817 q 340 738 328 817 q 349 651 341 727 q 365 652 359 651 q 379 656 371 653 q 477 624 446 656 q 509 534 509 593 m 344 66 q 317 54 329 54 q 290 72 290 54 q 301 106 290 85 q 308 120 304 112 q 304 139 310 136 q 284 178 284 148 q 295 220 284 201 q 313 239 305 239 q 335 204 335 239 q 329 156 335 171 q 317 132 322 141 l 344 66 m 105 338 q 97 301 105 317 q 69 284 90 284 q 36 310 36 284 q 44 353 36 332 q 64 374 52 374 q 87 367 76 374 q 105 338 105 353 z "},",":{"ha":323,"x_min":21,"x_max":305,"o":"m 305 99 q 251 -33 305 61 q 154 -138 192 -138 q 113 -120 133 -138 q 93 -81 93 -103 q 103 -52 99 -61 q 127 -10 115 -24 l 127 6 q 48 74 75 24 q 21 174 21 124 q 73 260 21 226 q 144 287 114 287 q 256 235 207 287 q 305 99 305 183 z "},"-":{"ha":641,"x_min":30,"x_max":614,"o":"m 614 518 q 605 455 614 473 q 575 419 590 437 q 575 374 575 398 q 569 302 575 335 q 548 247 564 268 l 534 247 q 527 278 527 266 q 531 302 527 286 q 536 332 536 319 q 528 376 531 362 q 504 419 518 419 q 478 404 495 419 q 461 371 461 389 q 474 353 470 359 q 488 314 488 332 q 481 284 488 292 q 458 275 474 275 q 439 285 446 275 q 433 313 433 295 q 435 340 433 331 q 446 382 437 350 q 433 384 440 383 q 413 385 427 385 q 366 383 395 385 q 331 382 337 382 q 168 417 226 382 q 79 510 109 452 q 49 546 75 519 q 30 590 30 567 q 156 653 30 644 q 278 656 196 656 q 379 659 313 656 q 456 662 446 662 q 578 618 536 662 q 614 518 614 581 m 488 210 q 443 144 488 144 q 411 150 421 144 q 401 175 401 157 q 412 220 401 189 q 439 251 422 251 q 470 239 452 251 q 488 210 488 226 z "},".":{"ha":263,"x_min":21,"x_max":242,"o":"m 242 153 q 222 52 242 91 q 135 3 195 3 q 39 70 66 3 q 21 189 21 114 q 34 275 21 235 q 99 338 55 338 q 202 272 151 338 q 242 153 242 220 z "},"/":{"ha":407,"x_min":0,"x_max":0,"o":""},":":{"ha":335,"x_min":24,"x_max":314,"o":"m 278 817 q 241 752 278 780 q 147 724 204 724 q 57 810 96 724 q 24 952 24 883 q 49 998 24 979 q 100 1018 75 1018 q 226 946 169 1018 q 278 817 278 880 m 314 213 q 298 130 304 157 q 275 39 280 48 q 271 69 271 51 q 226 66 265 70 q 180 63 187 61 q 105 148 126 78 q 93 248 93 190 q 106 335 93 295 q 171 398 127 398 q 274 332 223 398 q 314 213 314 280 z "},";":{"ha":371,"x_min":24,"x_max":347,"o":"m 290 693 q 253 624 290 651 q 153 590 207 590 q 88 635 109 612 q 24 831 24 705 q 50 882 24 865 q 108 898 76 898 q 236 819 177 898 q 290 693 290 747 m 347 111 q 295 -19 347 70 q 189 -120 236 -120 q 146 -106 157 -120 q 135 -69 135 -93 q 145 -40 141 -49 q 169 1 157 -12 l 169 18 q 90 86 117 36 q 63 186 63 136 q 115 272 63 238 q 186 299 156 299 q 298 247 248 299 q 347 111 347 195 z "},"<":{"ha":407,"x_min":0,"x_max":0,"o":""},"=":{"ha":641,"x_min":30,"x_max":614,"o":"m 614 703 q 605 641 614 659 q 575 605 590 623 q 581 578 578 594 q 585 545 585 561 q 581 515 585 527 q 566 486 578 503 l 558 474 q 543 498 551 497 q 536 518 536 498 q 528 561 531 548 q 504 605 518 605 q 478 590 495 605 q 461 557 461 575 q 474 539 470 545 q 488 500 488 518 q 481 469 488 477 q 458 461 474 461 q 439 471 446 461 q 433 498 433 480 q 435 526 433 516 q 446 567 437 536 q 433 569 440 569 q 413 570 427 570 q 366 569 395 570 q 331 567 337 567 q 168 602 226 567 q 79 696 109 638 q 49 732 75 705 q 30 775 30 753 q 156 838 30 829 q 278 841 196 841 q 379 844 313 841 q 456 847 446 847 q 578 804 536 847 q 614 703 614 766 m 614 302 q 605 239 614 257 q 575 204 590 222 q 575 159 575 183 q 569 86 575 120 q 548 31 564 52 l 534 31 q 527 63 527 51 q 531 87 527 70 q 536 117 536 103 q 528 160 531 147 q 504 204 518 204 q 478 189 495 204 q 461 156 461 174 q 474 138 470 144 q 488 99 488 117 q 481 68 488 76 q 458 60 474 60 q 439 70 446 60 q 433 97 433 79 q 435 125 433 115 q 446 166 437 135 q 433 168 440 168 q 413 169 427 169 q 366 168 395 169 q 331 166 337 166 q 168 201 226 166 q 79 295 109 236 q 49 331 75 304 q 30 374 30 352 q 156 437 30 428 q 278 440 196 440 q 379 443 313 440 q 456 446 446 446 q 578 403 536 446 q 614 302 614 365 m 488 -6 q 443 -72 488 -72 q 411 -65 421 -72 q 401 -40 401 -58 q 412 4 401 -27 q 439 36 422 36 q 470 23 452 36 q 488 -6 488 10 z "},">":{"ha":407,"x_min":0,"x_max":0,"o":""},"?":{"ha":647,"x_min":21,"x_max":629,"o":"m 629 814 q 613 717 629 784 q 573 593 597 650 q 446 479 531 495 q 410 456 410 471 q 431 387 422 428 q 440 308 440 346 q 428 245 440 283 q 407 208 416 208 q 386 224 401 208 q 367 242 371 241 q 349 233 359 236 q 322 233 340 229 q 248 301 284 242 q 199 515 199 383 q 265 594 199 540 q 350 681 313 633 q 422 792 404 748 q 440 882 440 835 q 415 926 440 917 q 341 934 389 934 q 271 925 320 934 q 208 914 222 916 q 151 858 162 905 q 136 835 147 835 q 109 846 126 835 q 93 795 93 819 q 98 762 93 783 q 109 723 103 741 q 88 717 94 717 q 62 739 69 717 q 55 796 55 762 q 55 834 55 814 q 55 855 55 853 q 30 897 39 880 q 21 940 21 914 q 93 1033 21 992 q 323 1082 180 1082 q 399 1079 361 1082 q 449 1072 437 1076 q 560 967 492 1057 q 629 814 629 877 m 154 777 l 142 772 q 124 786 138 772 l 124 816 l 154 811 l 154 777 m 494 -48 q 494 -68 494 -58 q 495 -87 494 -78 q 473 -105 495 -105 q 445 -76 445 -105 q 452 -37 445 -69 q 455 -15 455 -25 q 440 1 455 1 q 397 -22 407 1 q 392 -67 392 -33 l 376 -78 q 353 -30 359 -51 q 350 -7 352 -18 q 260 54 298 13 q 219 154 219 99 q 240 189 219 171 q 295 208 262 208 q 352 193 305 208 q 416 184 380 184 q 459 105 443 138 q 494 -48 494 39 z "},"@":{"ha":1084,"x_min":24,"x_max":1042,"o":"m 1042 25 l 24 25 l 24 1070 l 1042 1070 l 1042 25 m 1028 39 l 1028 1057 l 37 1057 l 37 39 l 1028 39 m 946 920 l 498 920 l 498 602 l 771 602 l 771 506 l 498 506 l 498 106 l 120 106 l 120 201 l 404 201 l 404 920 l 105 920 l 105 1009 l 946 1009 l 946 920 z "},"A":{"ha":778,"x_min":9,"x_max":757,"o":"m 747 230 l 732 230 l 732 274 q 745 253 744 257 q 747 230 747 248 m 757 350 q 754 337 757 346 q 747 293 747 313 l 732 293 q 723 323 726 317 q 696 338 714 338 q 668 330 678 338 q 659 296 659 322 q 681 184 659 287 q 703 54 703 81 q 678 -21 703 13 q 665 -55 665 -39 l 688 -148 l 688 -183 l 679 -187 q 656 -120 668 -172 q 636 -16 645 -69 q 618 1 626 -6 q 587 55 602 19 q 537 213 552 141 q 506 284 522 284 q 379 267 494 284 q 258 246 263 250 q 242 210 253 242 q 160 1 210 108 q 121 15 135 15 q 85 -21 96 15 q 67 -129 76 -75 q 47 -141 63 -136 q 19 -177 31 -147 l 9 -177 l 9 -61 q 49 127 25 19 q 156 521 97 332 q 220 709 193 638 q 259 814 242 768 q 284 888 275 861 q 328 1012 317 979 q 346 1064 338 1046 q 376 1099 361 1099 q 391 1090 385 1099 q 402 1076 397 1081 q 418 1072 407 1072 q 438 1071 427 1072 q 461 1060 449 1070 q 513 943 473 1049 q 572 711 563 810 q 586 617 572 679 q 617 488 600 555 q 691 413 626 422 q 757 350 757 404 m 626 -67 q 618 -97 626 -73 q 611 -120 617 -105 q 601 -107 606 -114 q 596 -70 596 -100 l 596 -49 q 617 -27 596 -37 q 626 -67 621 -46 m 626 -230 q 623 -240 626 -233 q 617 -254 620 -247 l 606 -254 q 587 -205 587 -232 q 591 -186 587 -195 q 602 -168 596 -177 q 618 -193 611 -174 q 626 -230 626 -213 m 169 -100 l 163 -36 l 169 -100 m 93 -211 l 69 -216 q 72 -205 70 -210 q 82 -183 82 -186 q 93 -211 90 -193 m 485 419 q 460 604 485 434 q 431 783 436 774 q 403 763 407 769 q 356 581 371 642 q 305 391 310 398 l 485 419 z "},"B":{"ha":630,"x_min":18,"x_max":606,"o":"m 606 334 q 506 117 606 214 q 404 19 455 67 q 398 25 400 24 q 377 39 383 39 q 357 29 374 39 q 308 9 340 19 q 239 -15 275 -1 q 216 -84 227 -24 q 214 -94 214 -88 q 214 -100 214 -99 q 221 -129 214 -112 q 227 -160 227 -147 l 223 -187 l 198 -187 q 199 -169 199 -181 q 198 -145 199 -162 q 198 -105 198 -129 l 198 -88 q 184 -58 198 -79 q 160 -37 171 -37 q 132 -55 139 -37 q 126 -108 126 -72 q 127 -147 126 -118 q 129 -193 129 -177 q 118 -269 129 -236 q 98 -237 105 -257 q 91 -193 91 -217 q 99 -136 91 -168 q 106 -109 100 -126 q 100 -81 106 -99 q 87 -15 87 -42 q 112 34 87 6 q 136 82 136 61 q 114 142 136 99 q 93 253 93 186 q 85 255 88 253 q 81 259 82 257 q 75 256 76 257 q 48 204 60 242 l 22 204 q 20 232 22 219 q 18 257 18 245 q 39 361 18 334 q 84 418 82 415 q 85 449 85 422 q 85 491 85 470 q 84 533 84 512 l 84 635 q 94 748 84 651 q 106 852 105 844 q 124 977 114 937 q 178 1052 144 1052 q 205 1046 195 1052 q 232 1025 216 1040 q 320 1072 275 1054 q 392 1090 365 1090 q 498 1039 447 1090 q 548 928 548 989 q 513 778 548 868 q 430 599 471 688 q 563 479 528 525 q 606 334 606 419 m 422 -55 q 404 -93 422 -78 q 395 -85 400 -88 q 386 -61 386 -76 q 395 -28 386 -46 l 410 -28 q 422 -55 422 -46 m 57 126 l 52 108 l 31 108 l 22 121 l 22 178 l 43 178 q 55 147 52 159 q 57 126 57 135 m 352 926 l 352 941 l 331 941 q 259 868 272 895 q 251 820 251 853 q 245 778 251 796 l 245 673 l 352 926 m 404 421 q 398 463 404 445 q 373 507 392 482 l 359 507 q 269 410 356 501 q 232 358 233 373 q 224 264 226 299 q 223 174 223 229 l 223 144 q 356 275 308 198 q 404 421 404 352 z "},"C":{"ha":659,"x_min":28,"x_max":639,"o":"m 572 540 q 549 515 572 515 q 525 529 534 515 q 515 564 515 543 q 524 609 524 570 l 540 614 q 562 584 552 614 q 572 540 572 554 m 639 214 q 624 157 639 192 q 591 69 591 81 q 602 19 591 58 q 614 -36 614 -21 q 593 -57 614 -57 q 572 -38 579 -57 q 566 10 566 -19 q 569 67 566 37 q 572 97 572 96 q 540 44 546 78 q 534 -30 534 10 q 545 -96 534 -63 q 555 -147 555 -129 q 536 -171 555 -171 q 510 -147 525 -171 q 495 -108 495 -124 q 515 -48 495 -85 q 524 -27 524 -30 q 519 -13 521 -19 q 510 33 513 7 q 504 35 507 33 q 500 39 501 37 q 463 12 488 24 q 398 0 439 0 q 335 10 373 0 q 295 19 298 19 l 280 -1 q 251 29 257 12 q 241 49 244 46 q 94 196 168 123 q 28 428 28 301 q 58 605 28 519 q 171 837 88 691 q 299 1003 229 941 q 480 1081 388 1081 q 569 1014 525 1081 q 614 873 614 947 q 605 811 614 865 q 576 623 587 705 l 552 623 q 539 650 543 641 q 534 672 534 659 q 543 712 534 682 q 552 748 552 742 q 510 772 552 756 q 468 901 468 789 l 459 905 q 389 844 442 905 q 284 669 325 768 q 243 530 254 596 q 232 407 232 464 q 253 277 232 328 q 341 207 281 207 q 458 250 382 207 q 552 293 534 293 q 613 270 587 293 q 639 214 639 247 m 280 -46 q 256 -91 280 -70 q 241 -57 241 -73 q 244 -34 241 -46 q 251 -10 247 -22 l 269 -10 l 280 -46 z "},"D":{"ha":635,"x_min":24,"x_max":618,"o":"m 618 615 q 612 482 618 543 q 576 308 602 376 q 558 241 566 280 q 549 156 549 202 q 557 75 549 127 q 560 42 560 54 q 537 18 560 18 q 518 46 518 18 q 519 79 518 54 q 521 118 521 103 q 519 159 521 142 q 510 198 516 177 q 450 138 498 189 q 382 63 401 88 q 370 73 379 64 q 356 81 362 81 q 323 64 335 69 q 250 46 281 46 q 227 49 242 46 l 241 -100 q 230 -142 233 -129 q 214 -184 219 -184 q 189 -160 189 -184 q 199 -136 189 -150 q 177 -97 177 -117 q 180 -70 177 -88 q 184 -43 184 -51 q 174 -5 184 -15 q 147 4 165 4 q 103 1 118 1 q 76 12 93 1 q 24 120 24 46 q 32 147 24 138 q 41 159 40 157 q 42 187 42 162 q 39 307 42 208 q 36 465 36 406 q 46 608 36 518 q 66 781 55 699 q 78 897 72 855 q 99 1025 84 940 q 102 1058 100 1042 q 129 1081 108 1081 q 171 1055 148 1081 q 190 1042 183 1042 q 243 1069 213 1057 q 311 1081 274 1081 q 531 946 443 1081 q 618 615 618 811 m 409 -37 q 392 -55 409 -55 q 373 -46 379 -55 q 367 -31 368 -34 l 371 34 q 397 -3 386 19 q 409 -37 409 -25 m 427 729 q 412 878 427 820 q 383 935 398 935 q 302 893 358 935 q 227 835 265 864 q 230 644 227 751 q 232 524 232 536 q 241 394 232 465 q 262 274 250 323 q 400 486 358 313 q 427 729 427 599 z "},"E":{"ha":688,"x_min":18,"x_max":669,"o":"m 524 816 q 504 799 524 799 q 486 826 486 799 q 497 852 486 828 q 516 837 515 840 q 524 816 524 826 m 669 123 q 645 42 669 90 q 621 -18 621 -6 q 638 -94 621 -36 q 654 -138 647 -129 l 654 -172 l 638 -175 q 613 -151 618 -175 q 602 -123 608 -127 q 579 -114 597 -120 q 557 -98 561 -109 q 551 -75 552 -87 q 549 -49 549 -63 q 550 -28 549 -39 q 552 -3 551 -16 q 535 31 552 24 q 486 37 518 37 q 409 27 468 37 q 310 10 316 10 q 294 9 304 9 q 280 9 284 9 l 244 9 q 196 1 211 9 q 181 -33 181 -6 q 195 -73 181 -45 q 210 -126 210 -102 q 204 -161 210 -148 q 196 -177 198 -174 l 180 -177 q 166 -129 166 -159 q 174 -82 166 -111 q 181 -52 181 -54 q 100 28 181 -28 q 18 126 18 85 q 39 157 18 130 q 52 177 51 172 l 43 349 l 43 570 l 84 935 q 64 971 76 956 q 52 1009 52 985 q 123 1068 52 1051 q 290 1085 195 1085 q 419 1078 334 1085 q 563 1061 504 1072 q 612 1052 587 1057 q 650 1019 650 1042 q 623 935 650 971 q 596 828 596 899 l 581 825 q 564 840 564 825 q 566 876 564 856 q 569 914 567 895 q 559 916 561 914 q 555 919 557 917 q 524 888 548 919 q 501 871 512 871 q 481 885 495 871 q 455 899 467 899 q 400 889 445 893 q 272 885 355 885 q 250 886 256 886 q 235 870 238 886 q 232 831 232 855 q 236 766 233 816 q 238 645 238 715 q 246 639 242 642 q 274 636 250 636 q 413 651 310 636 q 519 668 465 659 q 618 638 573 668 q 663 561 663 609 q 648 482 663 519 q 626 436 636 458 q 623 410 623 421 q 624 384 623 397 q 627 361 626 371 q 609 340 627 340 q 585 370 585 340 q 593 416 585 380 q 596 439 596 431 q 579 476 596 476 q 548 467 557 476 q 539 443 539 458 q 542 421 539 434 q 545 406 545 407 q 534 403 542 404 q 518 401 527 403 q 515 433 515 412 q 516 455 515 442 q 518 473 518 468 q 498 494 518 494 q 425 479 491 494 q 253 440 254 440 l 253 239 l 482 239 q 585 214 525 239 q 669 123 669 178 m 606 -51 q 605 -20 606 -25 q 587 0 603 -15 q 576 -15 582 -9 q 569 -22 570 -21 q 587 -59 576 -39 q 603 -85 597 -79 l 606 -51 z "},"F":{"ha":742,"x_min":28,"x_max":717,"o":"m 602 759 q 585 754 588 754 q 564 786 564 754 l 569 807 l 587 807 l 602 783 l 602 759 m 717 944 q 678 867 717 934 q 657 808 657 831 q 669 778 657 804 q 676 748 676 762 q 668 727 676 736 q 650 717 660 717 q 623 730 630 717 q 617 774 617 744 q 618 823 617 787 q 620 862 620 859 l 611 871 l 587 834 q 565 875 569 849 q 539 901 561 901 q 407 882 452 889 q 250 844 272 859 l 250 618 q 536 588 465 618 q 633 409 633 546 l 630 305 q 614 299 621 302 q 592 335 605 299 q 582 394 579 370 l 578 427 l 555 398 q 529 421 540 404 q 509 437 518 437 q 421 425 453 428 q 250 412 310 412 l 250 52 q 217 -25 250 13 q 184 -96 184 -64 q 200 -139 184 -111 q 216 -190 216 -168 q 190 -223 216 -223 q 159 -169 168 -223 q 142 -79 145 -87 q 136 -114 136 -103 q 138 -132 138 -126 q 133 -159 138 -141 l 123 -165 q 108 -148 108 -150 q 100 -123 103 -135 l 100 -31 q 115 -27 108 -27 q 137 -43 132 -27 q 147 -75 142 -58 q 156 -34 156 -54 q 114 6 156 -22 q 50 90 64 39 q 32 168 36 141 q 28 269 28 195 q 52 587 28 427 q 103 911 76 748 q 69 962 84 938 q 54 1015 54 986 q 119 1066 54 1051 q 307 1082 184 1082 q 602 1060 516 1082 q 717 944 717 1030 z "},"G":{"ha":916,"x_min":33,"x_max":893,"o":"m 893 190 l 877 187 q 849 233 849 187 q 862 310 849 266 q 852 318 855 314 q 837 322 849 322 q 775 302 796 308 q 696 274 708 280 q 730 171 730 227 q 722 130 730 157 q 705 75 714 103 q 721 30 705 55 q 759 -43 759 -27 q 724 -70 759 -70 q 685 -44 696 -70 q 673 22 673 -18 q 676 70 673 51 q 681 103 678 90 q 659 57 666 91 q 653 -27 653 22 q 657 -133 653 -81 q 666 -223 662 -186 q 647 -227 656 -224 q 620 -204 633 -227 q 608 -156 608 -181 q 615 -118 608 -141 q 633 -49 633 -66 q 610 4 633 -22 q 557 30 587 30 l 431 4 q 401 1 410 1 q 352 7 377 1 q 304 18 328 12 q 284 -16 299 18 q 271 -51 280 -27 q 292 -76 271 -52 q 313 -151 313 -100 l 302 -183 l 287 -183 q 263 -137 269 -159 q 256 -93 256 -115 q 260 -54 256 -78 q 265 -19 265 -30 q 262 0 265 -6 q 227 40 253 21 q 142 108 145 105 q 57 253 81 180 q 33 409 33 326 q 62 566 33 479 q 165 788 91 654 q 313 999 238 922 q 445 1076 388 1076 q 605 1009 521 1076 q 727 813 703 929 q 732 768 732 787 q 727 720 732 741 q 718 685 721 699 q 736 650 718 666 q 753 617 753 635 q 742 585 753 600 q 723 570 732 570 q 682 589 694 570 q 670 639 670 608 q 681 708 670 669 q 687 724 682 714 q 640 751 687 750 q 557 807 593 753 q 512 882 527 853 q 474 958 492 919 q 407 841 462 947 q 293 585 335 705 q 233 299 233 416 q 266 205 233 245 q 341 165 299 165 q 409 178 365 165 q 453 211 453 192 q 400 273 424 239 q 376 340 376 307 q 452 403 376 370 q 668 442 542 442 q 795 422 732 442 q 893 331 893 391 l 893 190 m 368 -199 q 370 -219 368 -214 q 373 -227 371 -223 q 355 -244 364 -235 l 329 -219 l 329 -139 l 350 -139 q 362 -161 356 -150 q 368 -199 368 -172 z "},"H":{"ha":868,"x_min":33,"x_max":844,"o":"m 844 238 q 834 193 844 211 l 802 193 l 798 245 q 806 284 798 265 q 819 317 814 304 q 840 284 835 301 q 844 238 844 268 m 844 512 q 837 474 844 489 q 829 446 831 458 q 837 415 834 433 q 841 376 841 397 l 823 371 q 802 419 802 371 q 819 488 802 450 q 802 501 810 494 q 736 458 751 501 q 729 371 729 437 l 729 189 q 669 91 729 136 q 609 10 609 46 q 623 -76 609 -13 q 636 -135 627 -96 q 629 -160 636 -156 q 606 -165 623 -165 q 575 -126 588 -165 q 566 -87 572 -114 q 579 -9 575 -34 q 593 84 593 72 q 587 105 593 90 q 561 184 567 157 q 545 333 549 253 q 522 436 540 413 q 392 404 495 419 q 265 371 289 389 q 260 178 265 253 q 250 58 254 118 q 254 -79 250 -22 q 265 -214 265 -213 q 244 -217 254 -217 q 223 -214 235 -217 q 217 -184 223 -205 q 211 -148 211 -163 q 222 -88 211 -141 q 232 -6 232 -36 q 223 27 232 12 q 195 16 202 18 q 175 13 187 13 q 68 93 103 13 q 33 295 33 172 l 61 714 l 84 886 q 98 995 91 944 q 114 1058 105 1046 q 146 1074 124 1070 q 190 1081 168 1078 q 239 1028 216 1081 q 271 853 271 959 l 271 662 q 266 623 271 650 q 262 585 262 596 q 286 555 262 555 q 328 560 316 555 q 406 581 361 572 q 498 591 450 590 q 546 630 546 593 q 546 671 546 651 q 545 712 545 691 l 545 730 q 558 883 554 832 q 576 1048 572 1033 q 630 1081 591 1081 q 703 935 690 1081 q 717 784 717 789 l 733 623 q 789 579 733 603 q 844 512 844 555 m 693 -18 q 692 -46 693 -21 q 691 -75 691 -70 l 691 -100 l 668 -100 q 660 -71 665 -87 q 656 -48 656 -55 q 669 -6 663 -36 q 675 58 675 24 q 697 36 697 42 q 695 13 697 31 q 693 -18 693 -6 z "},"I":{"ha":263,"x_min":18,"x_max":238,"o":"m 238 76 q 228 23 238 45 q 193 1 219 1 q 85 69 139 1 q 18 280 18 153 q 19 354 18 320 q 25 436 21 388 l 48 774 q 67 998 48 904 q 120 1093 87 1093 q 189 999 148 1093 q 229 822 229 905 q 230 551 229 653 q 235 303 232 449 q 238 76 238 157 m 229 -220 q 199 -235 214 -235 q 174 -210 174 -235 q 183 -172 174 -195 q 192 -153 186 -165 q 178 -141 183 -145 q 168 -105 168 -130 q 176 -65 168 -91 q 195 -39 184 -39 q 213 -51 207 -39 q 219 -79 219 -63 q 210 -142 219 -123 q 199 -154 207 -148 q 208 -177 205 -169 q 229 -220 220 -204 z "},"J":{"ha":533,"x_min":24,"x_max":509,"o":"m 509 253 q 477 105 509 223 q 437 -27 446 -13 q 415 12 422 -12 q 391 36 407 36 q 352 17 383 36 q 296 -1 320 -1 q 177 49 248 -1 q 76 150 120 90 q 61 121 64 138 q 57 82 57 105 q 52 36 57 52 q 43 126 52 90 q 24 239 24 204 q 51 337 24 293 q 120 382 78 382 q 192 280 150 382 q 302 178 233 178 q 332 236 326 178 q 338 500 338 295 q 336 754 338 612 q 334 914 334 896 q 352 1048 334 1010 q 407 1085 371 1085 q 468 1003 443 1085 q 489 852 489 935 q 502 709 495 784 q 509 594 509 633 l 509 253 m 468 -172 q 447 -192 468 -192 q 423 -172 436 -192 q 410 -120 410 -153 q 415 -84 413 -96 q 434 -48 422 -48 q 461 -88 453 -48 q 468 -172 468 -127 m 120 -79 q 96 -55 105 -73 l 100 45 q 120 19 112 36 l 120 -79 m 90 -145 l 73 -148 q 57 -125 63 -148 q 51 -72 51 -102 q 54 -36 51 -48 q 58 -18 57 -24 q 78 -72 78 -39 q 90 -121 78 -105 l 90 -145 z "},"K":{"ha":718,"x_min":27,"x_max":694,"o":"m 554 623 q 554 615 554 618 q 549 578 549 585 q 552 551 549 569 l 524 546 q 525 567 525 554 q 524 602 524 588 q 525 637 524 629 q 539 660 527 645 q 549 642 543 651 q 554 623 554 633 m 554 486 l 549 458 l 539 458 q 531 468 533 465 q 524 488 524 480 q 534 509 530 500 l 554 486 m 694 -13 q 685 -36 690 -24 l 672 -36 q 665 -12 668 -24 q 632 6 654 6 q 600 -10 606 6 q 581 -54 585 -48 q 494 52 581 15 q 392 124 433 78 q 287 259 326 198 q 219 349 235 340 l 219 284 q 236 160 226 257 q 245 45 245 63 q 248 21 248 30 q 245 -6 248 4 q 232 -27 241 -16 q 212 -2 223 -10 q 180 6 201 6 q 51 145 82 6 q 31 436 31 230 l 27 711 q 31 834 27 769 q 43 972 34 899 q 67 1066 52 1045 q 105 1087 81 1087 q 150 1046 127 1087 q 178 911 178 994 q 180 777 178 853 q 183 691 183 700 l 192 682 q 270 813 236 757 q 361 940 304 868 q 395 988 382 973 q 467 1036 436 1036 q 527 987 504 1036 q 549 876 549 938 l 549 720 l 539 706 l 525 706 q 510 762 510 735 q 512 796 512 786 q 503 829 512 814 q 477 784 488 811 q 430 673 449 705 q 368 578 394 612 q 338 525 338 536 q 400 431 338 518 q 525 257 462 344 q 657 81 632 117 q 694 -13 694 30 m 694 -153 q 673 -177 694 -177 q 666 -172 668 -174 q 659 -150 659 -165 q 663 -120 659 -139 q 672 -91 668 -100 q 690 -123 685 -106 q 694 -153 694 -139 m 603 -147 l 590 -147 l 585 -100 q 603 -114 593 -103 l 603 -147 m 605 -238 l 590 -238 l 581 -213 q 584 -195 581 -208 q 590 -178 588 -183 l 605 -178 l 605 -238 m 256 -169 l 238 -174 q 222 -156 230 -174 q 213 -124 213 -138 q 218 -100 213 -118 q 227 -73 223 -82 q 243 -106 238 -85 q 256 -151 248 -126 l 256 -169 z "},"L":{"ha":742,"x_min":15,"x_max":726,"o":"m 726 36 q 722 -7 726 7 q 703 -40 718 -21 q 703 -6 703 -22 q 705 27 703 10 q 703 60 705 48 l 693 64 q 669 22 684 64 q 654 -33 654 -19 q 665 -68 654 -52 q 690 -84 676 -84 q 703 -78 694 -84 q 712 -103 712 -99 q 708 -127 712 -111 l 693 -108 q 678 -120 685 -114 q 662 -127 670 -127 q 632 -97 632 -127 q 635 -66 632 -81 q 645 -10 645 -13 q 638 22 645 -1 q 621 46 632 46 q 594 36 606 39 q 494 25 554 25 q 407 28 449 25 q 326 30 365 30 q 291 15 301 30 q 281 -25 281 0 q 289 -78 281 -42 q 292 -97 292 -91 q 285 -117 292 -108 q 271 -127 278 -127 q 251 -97 251 -127 q 255 -52 251 -85 q 259 -12 259 -19 q 130 40 168 -12 q 88 64 114 64 l 72 60 q 70 37 72 48 q 67 21 67 25 q 25 109 49 51 q 15 135 22 118 q 43 169 15 150 q 72 241 72 189 q 76 498 72 266 q 81 790 81 730 q 86 810 81 793 q 90 831 91 828 q 81 895 81 871 q 87 947 81 919 q 106 1060 97 1033 q 126 1087 115 1087 q 218 995 181 1087 q 254 757 254 904 q 257 531 254 659 q 259 389 259 404 q 259 256 259 322 q 268 219 260 233 q 304 205 275 205 q 370 209 323 205 q 436 213 418 213 q 685 177 635 213 q 726 36 726 148 m 287 -193 l 278 -198 l 278 -174 l 287 -193 m 76 -36 q 58 -27 66 -33 l 58 -3 q 76 -16 66 -6 l 76 -36 z "},"M":{"ha":850,"x_min":28,"x_max":826,"o":"m 826 139 q 822 34 823 70 q 804 -90 814 -73 q 789 -49 802 -70 q 783 -82 786 -64 q 771 -114 780 -99 q 752 -90 757 -103 q 747 -61 747 -76 q 748 -25 747 -43 q 727 -1 745 -15 q 693 28 700 19 q 644 115 651 73 q 638 180 641 147 q 609 350 617 272 q 593 488 597 474 q 549 355 584 479 q 509 204 513 230 q 487 103 497 138 q 455 6 477 67 q 446 -51 449 -30 q 424 -72 443 -72 q 406 -59 410 -72 q 400 -38 403 -46 q 386 -21 397 -30 q 353 10 358 3 q 338 79 341 31 q 313 186 335 126 q 236 401 274 293 q 211 446 229 422 l 207 -108 q 204 -120 205 -117 q 183 -132 198 -132 q 166 -99 166 -132 l 166 -66 q 159 -17 166 -37 q 125 16 151 3 q 69 66 99 30 q 28 157 28 114 l 28 474 l 81 862 q 61 914 78 880 q 45 962 45 947 q 64 988 45 988 q 97 988 81 988 q 113 1013 102 991 q 139 1036 124 1036 q 193 956 180 1036 q 197 903 196 931 q 214 849 198 876 q 271 739 238 807 q 354 548 317 642 q 400 442 391 453 q 450 575 410 447 q 500 745 491 702 q 534 862 509 787 q 564 946 549 904 q 560 1004 567 962 q 554 1052 554 1045 q 560 1088 554 1075 q 582 1102 566 1102 q 614 1088 600 1102 q 633 1075 627 1075 q 648 1084 635 1075 q 678 1093 662 1093 q 748 1048 729 1093 q 762 955 762 1018 q 761 920 762 937 q 760 889 760 904 l 757 846 q 733 883 733 867 q 736 900 733 889 q 735 919 738 911 q 718 891 720 896 q 715 874 715 885 q 745 744 717 874 q 796 467 774 614 q 826 139 826 268 m 434 -132 q 433 -154 434 -144 q 430 -177 431 -165 q 433 -201 430 -192 l 413 -201 q 400 -141 410 -195 q 395 -117 398 -133 q 404 -99 400 -108 q 425 -114 416 -103 q 434 -132 434 -124 m 198 -214 l 175 -214 q 172 -210 172 -211 q 165 -186 165 -195 l 171 -163 l 193 -163 q 202 -190 198 -177 l 198 -214 z "},"N":{"ha":694,"x_min":16,"x_max":670,"o":"m 54 882 l 45 877 l 36 891 l 36 928 l 49 928 l 54 882 m 670 40 q 656 -51 670 -19 q 641 -115 641 -82 q 645 -139 644 -127 q 659 -239 654 -192 l 635 -239 q 622 -213 626 -226 q 618 -184 618 -199 q 621 -151 618 -174 q 624 -118 624 -129 q 533 46 624 -63 q 436 198 470 121 q 391 289 419 235 q 352 363 371 326 q 313 450 334 400 q 272 528 287 512 l 266 519 q 278 437 275 470 q 292 248 292 329 l 263 -124 q 268 -151 263 -139 q 292 -189 272 -163 l 292 -202 q 277 -211 284 -207 q 248 -186 256 -211 q 239 -127 239 -162 q 240 -82 239 -91 q 244 -67 241 -73 q 228 -9 239 -25 q 190 7 217 7 q 147 1 171 7 q 99 79 114 52 q 69 174 69 130 q 71 373 69 262 q 73 500 73 485 q 83 567 79 527 q 87 650 87 608 l 87 769 l 102 892 q 87 946 102 919 q 55 973 72 973 q 40 965 48 973 q 16 1013 16 992 q 22 1033 21 1027 q 37 1054 31 1054 q 52 1048 43 1054 q 111 1019 72 1034 q 122 1051 117 1030 q 144 1073 127 1073 q 201 1019 177 1073 q 235 895 217 956 q 272 838 238 888 q 305 783 289 816 q 364 662 313 769 q 453 480 439 503 l 453 736 q 470 877 453 781 q 522 1010 492 1010 q 617 670 576 1010 q 645 437 629 570 q 654 347 654 367 q 650 317 654 331 l 670 40 m 180 -129 l 156 -129 l 156 -34 q 173 -65 171 -52 q 180 -91 175 -78 l 180 -129 m 184 -193 l 180 -202 l 165 -202 l 169 -160 q 184 -193 180 -175 z "},"O":{"ha":676,"x_min":24,"x_max":653,"o":"m 653 418 q 608 151 653 310 q 585 37 585 72 q 582 1 584 22 q 581 -34 581 -19 l 581 -70 q 590 -108 581 -79 q 599 -160 599 -136 q 593 -187 599 -180 q 567 -195 587 -195 q 536 -166 548 -195 q 524 -114 524 -138 q 545 -52 539 -76 q 567 94 567 27 l 567 120 q 566 135 566 130 q 497 73 543 115 q 452 31 462 43 q 436 1 442 18 q 431 -31 431 -15 q 433 -64 433 -55 q 430 -85 433 -75 q 413 -106 428 -96 q 329 4 413 3 q 153 93 244 6 q 64 245 103 139 q 24 453 24 350 q 63 685 24 555 q 214 958 117 864 q 284 1021 250 994 q 401 1079 359 1079 q 443 1019 410 1079 q 506 925 471 968 q 549 852 522 904 q 590 763 576 801 q 641 583 629 650 q 653 418 653 516 m 453 -220 l 449 -245 l 422 -245 q 407 -196 407 -219 q 410 -180 407 -187 q 422 -157 413 -174 l 437 -157 q 451 -202 449 -192 q 453 -220 453 -213 m 476 439 q 450 735 476 608 q 380 925 419 889 q 248 657 295 840 q 213 406 213 516 q 245 223 213 275 q 344 171 277 171 q 452 277 418 171 q 476 439 476 352 z "},"P":{"ha":623,"x_min":13,"x_max":596,"o":"m 596 772 q 477 501 596 614 q 334 394 406 447 q 312 346 322 380 q 302 278 302 311 q 307 245 302 259 l 307 204 l 286 199 q 280 230 281 214 q 278 256 278 245 q 280 288 278 268 q 281 316 281 308 q 275 353 281 340 q 250 380 269 367 l 222 -123 q 192 -85 192 -126 q 193 -57 192 -78 q 195 -22 195 -36 q 190 21 195 -1 l 181 30 q 163 -1 171 16 q 150 22 154 9 q 144 48 147 36 q 66 145 105 96 q 34 334 34 216 q 49 550 34 418 q 81 820 64 682 q 75 837 75 831 l 52 841 q 42 789 42 816 q 43 759 42 778 q 45 730 45 739 q 39 702 45 714 q 24 786 36 714 q 13 849 21 807 q 51 935 13 893 q 90 968 63 949 q 111 1037 103 985 q 148 1090 118 1090 q 193 1075 180 1090 q 213 1042 205 1054 q 274 1073 242 1057 q 349 1096 323 1096 q 533 982 450 1096 q 596 772 596 895 m 163 -55 q 154 -85 163 -64 l 139 -85 q 135 -48 135 -57 q 144 -36 141 -42 q 163 -55 163 -45 m 437 889 l 437 913 q 427 962 437 952 q 370 973 416 973 q 284 958 317 973 q 230 883 235 935 l 245 578 q 383 712 323 606 q 437 889 437 808 z "},"Q":{"ha":712,"x_min":25,"x_max":700,"o":"m 700 -61 q 696 -96 700 -76 q 685 -205 685 -141 q 662 -227 685 -227 q 641 -199 641 -227 q 648 -147 641 -192 q 651 -114 651 -129 q 647 -90 651 -99 l 609 -90 l 609 -253 q 596 -257 602 -254 q 575 -245 585 -257 q 564 -223 564 -233 q 573 -201 564 -219 q 582 -175 582 -183 q 542 -72 582 -145 q 464 33 512 -16 q 435 -18 442 21 q 413 -75 428 -57 q 406 -40 406 -55 l 406 -24 q 397 7 406 -6 q 251 73 320 39 q 136 166 183 108 q 46 355 75 241 q 25 527 25 439 q 46 659 25 590 q 127 849 66 729 q 227 989 157 913 q 385 1088 317 1088 q 442 1030 422 1049 q 515 953 477 991 q 570 884 545 923 q 609 799 596 844 q 651 660 629 733 q 673 474 673 587 q 647 274 673 346 q 585 148 615 211 q 629 98 585 147 q 673 28 673 49 q 681 19 678 24 q 700 -61 700 -10 m 446 -183 q 424 -208 446 -208 q 406 -159 406 -208 l 410 -118 l 422 -118 q 441 -146 436 -133 q 446 -183 446 -159 m 480 632 q 443 853 480 745 q 391 958 415 934 q 251 720 301 868 q 213 504 213 603 q 228 370 213 453 q 277 253 244 287 q 296 243 287 248 q 313 224 305 238 l 332 224 q 278 352 299 293 q 262 400 271 371 q 272 419 262 412 q 308 427 283 427 q 378 403 338 427 q 431 358 418 379 q 474 524 462 407 q 480 632 477 563 z "},"R":{"ha":718,"x_min":25,"x_max":714,"o":"m 700 -76 l 687 -79 q 670 -38 678 -79 q 659 9 662 3 q 635 -24 642 4 q 627 -88 627 -52 q 629 -111 629 -105 l 629 -144 q 614 -62 620 -133 q 600 18 608 9 q 559 42 585 27 q 498 85 533 57 q 385 215 458 118 q 290 340 313 311 l 280 340 q 285 152 280 262 q 290 -4 290 42 q 286 -58 289 -28 q 269 -130 283 -88 q 245 -88 245 -114 q 249 -59 245 -78 q 253 -37 253 -40 q 233 0 253 -15 q 208 7 229 3 q 171 23 187 12 q 139 57 154 34 q 99 109 120 88 q 88 103 91 106 q 85 81 85 100 q 68 91 76 85 q 60 115 60 96 q 61 347 60 205 q 63 581 63 489 q 46 616 58 602 q 34 639 34 630 q 72 711 55 654 q 88 858 88 768 l 85 873 l 69 873 q 59 814 63 846 q 55 744 55 783 l 36 739 q 29 754 33 745 q 25 768 25 763 q 45 940 25 904 q 108 998 81 973 q 129 1026 126 1013 q 132 1051 132 1039 q 153 1058 139 1058 q 180 1054 160 1058 q 213 1051 201 1049 q 284 1070 222 1052 q 356 1088 347 1088 q 560 991 464 1088 q 642 781 642 908 q 607 608 642 670 q 418 458 572 545 q 615 247 537 346 q 700 67 700 139 l 700 -76 m 714 -207 l 702 -211 q 685 -192 690 -199 q 668 -136 668 -165 q 676 -96 672 -117 q 696 -129 691 -112 q 714 -183 709 -177 l 714 -207 m 265 -229 l 251 -229 l 238 -211 q 240 -203 238 -210 q 242 -178 242 -196 l 260 -178 l 265 -229 m 85 -22 q 78 -45 85 -31 q 70 -72 70 -58 q 75 -100 70 -82 l 64 -105 q 49 -91 52 -105 q 45 -58 45 -76 q 49 -34 45 -48 q 60 33 60 -1 q 79 10 72 22 q 85 -22 85 -3 m 474 861 q 450 912 474 898 q 376 926 427 926 q 301 916 331 926 q 250 856 250 898 q 260 727 250 798 q 275 650 271 657 q 353 690 314 669 q 474 861 474 760 z "},"S":{"ha":712,"x_min":22,"x_max":687,"o":"m 687 317 q 676 227 687 265 q 657 160 666 190 q 620 69 644 99 q 567 25 593 46 q 561 0 561 18 q 569 -66 566 -37 q 572 -130 572 -94 q 563 -165 572 -151 q 536 -178 554 -178 q 519 -165 525 -178 q 513 -141 513 -151 q 524 -112 521 -123 q 536 -48 536 -75 q 525 -36 528 -42 q 513 16 513 -16 q 501 21 504 21 q 465 -31 474 21 q 447 -135 455 -84 q 427 -82 427 -121 q 430 -42 427 -70 q 433 4 433 -13 q 382 3 413 4 q 331 1 350 1 q 155 71 222 1 q 58 141 88 141 q 40 201 58 168 q 22 259 22 233 q 37 305 22 278 q 66 332 51 332 q 177 262 94 332 q 254 192 204 239 q 302 222 284 210 q 389 301 356 260 q 421 358 398 311 q 467 455 443 406 l 467 489 q 452 495 459 492 q 380 456 404 470 q 299 394 305 412 q 299 379 299 391 q 298 365 298 367 q 299 328 298 346 q 304 269 299 310 q 290 260 296 265 q 267 272 277 260 q 257 308 257 284 q 277 374 257 322 q 287 406 287 403 q 230 445 287 416 q 139 534 165 477 q 106 616 132 548 q 81 705 81 684 q 96 769 88 745 q 154 899 118 843 q 290 1016 193 952 q 425 1070 371 1070 q 564 991 483 1070 q 657 829 632 925 q 673 789 660 816 q 687 760 687 763 q 665 730 672 742 q 641 662 641 691 q 659 621 651 639 q 668 587 668 603 q 657 549 660 567 l 633 549 q 626 583 627 569 q 624 615 624 597 q 626 646 624 629 q 630 684 627 663 q 621 718 630 705 q 584 744 612 730 q 504 824 533 768 q 447 934 474 880 q 362 819 421 919 q 278 644 304 720 l 278 606 q 372 635 337 626 q 425 645 407 645 q 576 570 492 645 q 687 317 687 471 m 450 -207 q 444 -225 450 -220 q 433 -233 437 -230 q 412 -199 412 -213 q 413 -193 413 -195 q 424 -163 422 -171 q 443 -172 433 -168 q 450 -207 450 -180 z "},"T":{"ha":760,"x_min":24,"x_max":742,"o":"m 669 757 l 647 757 l 653 793 l 665 793 l 669 757 m 742 925 q 727 797 742 898 q 702 678 712 696 q 679 693 682 690 q 672 715 672 700 q 697 795 672 721 q 711 843 711 834 q 693 883 711 861 q 678 858 678 868 q 673 822 678 834 l 660 822 l 660 846 q 651 895 660 886 q 599 904 642 904 l 442 904 l 442 772 l 473 427 l 473 310 q 471 279 471 292 q 470 257 470 266 q 471 210 470 224 q 474 181 471 195 q 458 109 465 138 q 404 -42 436 27 q 401 -60 401 -48 q 405 -94 401 -69 q 409 -135 409 -118 q 406 -190 409 -175 q 382 -205 403 -205 q 366 -186 371 -205 q 361 -148 361 -168 q 373 -91 361 -112 q 400 -46 386 -69 q 385 5 400 -12 q 344 36 371 22 q 331 -7 331 9 q 334 -31 334 -24 q 323 -55 334 -43 q 272 123 299 42 q 238 343 238 224 l 278 923 q 129 947 192 923 q 24 1037 49 977 l 24 1054 q 120 1075 73 1067 q 219 1084 168 1084 q 360 1086 280 1084 q 450 1088 440 1088 q 659 1067 606 1088 q 742 925 742 1034 m 331 -154 l 317 -157 q 314 -121 317 -145 q 311 -93 311 -97 q 331 -106 322 -97 l 331 -154 m 331 -293 l 311 -293 q 301 -268 301 -271 q 307 -247 305 -254 q 331 -271 323 -254 l 331 -293 z "},"U":{"ha":617,"x_min":21,"x_max":605,"o":"m 591 -13 l 563 0 q 555 -68 558 -27 q 552 -198 552 -109 q 538 -112 548 -189 q 506 -4 528 -36 q 477 16 501 3 q 455 28 470 21 q 430 57 439 43 q 416 70 422 70 q 371 51 386 58 q 326 0 326 25 l 361 -156 q 344 -159 352 -157 q 326 -133 332 -159 q 308 -99 319 -108 l 308 -169 q 329 -205 329 -186 q 327 -216 329 -213 q 322 -226 325 -220 l 299 -226 q 296 -112 299 -172 q 284 -28 292 -52 q 236 33 272 7 q 118 127 135 105 q 37 308 57 214 q 21 510 28 409 q 37 635 24 533 q 46 759 46 699 q 46 858 46 817 q 48 937 46 898 q 62 1030 48 976 q 97 1085 76 1085 q 198 949 166 1085 q 219 735 219 856 l 219 504 q 247 316 219 416 q 334 193 281 193 q 388 216 371 193 q 400 263 400 232 q 397 299 400 283 q 392 326 394 314 q 395 649 392 439 q 398 891 398 859 q 414 1021 398 959 q 453 1082 430 1082 q 543 966 509 1082 q 576 623 576 850 q 575 511 576 566 q 575 406 575 456 q 578 241 575 317 q 591 61 581 165 q 597 27 594 43 q 591 -13 597 15 m 605 -60 q 596 -85 599 -75 l 581 -85 l 581 -33 l 591 -24 q 605 -60 605 -55 z "},"V":{"ha":730,"x_min":25,"x_max":712,"o":"m 688 533 q 665 474 688 495 l 650 474 l 639 521 q 645 545 644 537 q 660 582 653 567 l 675 582 q 685 558 681 570 q 688 533 688 546 m 712 873 l 679 621 l 650 621 q 653 657 651 626 q 656 703 656 688 q 650 754 656 738 l 468 138 q 495 67 488 91 q 501 31 501 43 q 495 -19 501 21 q 479 -130 479 -129 l 468 -133 q 452 -77 462 -133 q 395 -21 442 -21 q 374 -62 380 -21 q 349 -103 368 -103 q 332 -94 335 -103 q 328 -63 328 -85 l 328 -40 q 326 1 328 -13 q 313 36 323 16 q 275 91 293 63 q 241 174 263 120 q 184 323 199 271 q 151 458 168 391 q 84 721 126 545 q 25 1034 25 967 q 36 1072 25 1057 q 66 1088 46 1088 q 138 1027 91 1088 q 259 778 204 940 l 370 449 q 446 651 379 467 q 483 754 482 750 q 510 841 494 790 q 555 959 534 914 q 579 1007 567 988 q 620 1042 600 1042 q 666 1009 651 1025 q 712 873 712 958 m 477 -198 q 475 -227 477 -211 q 459 -260 473 -242 q 440 -239 440 -247 q 442 -220 442 -229 q 447 -187 442 -202 q 455 -160 452 -172 l 470 -160 q 477 -198 477 -175 m 374 -193 q 370 -207 370 -201 l 350 -207 q 346 -193 347 -199 l 350 -174 l 365 -174 q 372 -184 370 -181 q 374 -193 374 -187 m 654 759 l 654 774 l 654 759 z "},"W":{"ha":1000,"x_min":15,"x_max":973,"o":"m 973 962 q 929 618 973 841 q 843 235 904 486 q 786 -1 787 6 q 784 -22 784 -7 q 792 -63 784 -43 q 799 -81 795 -72 q 793 -101 799 -90 q 786 -117 787 -112 q 784 -130 784 -121 q 792 -175 784 -132 q 795 -214 795 -192 l 783 -220 q 762 -207 771 -220 q 753 -181 753 -195 q 768 -154 753 -178 q 775 -130 775 -142 q 753 -90 775 -106 q 702 -66 738 -79 q 698 -160 702 -108 q 688 -224 694 -213 l 673 -224 q 662 -137 663 -210 q 650 10 660 -64 q 627 88 647 33 q 606 142 617 115 q 575 247 587 208 q 491 507 506 473 q 450 403 480 497 q 415 214 415 289 q 424 179 415 202 q 447 127 434 156 q 452 84 452 109 q 445 7 452 51 q 434 -75 439 -37 q 445 -132 439 -102 q 450 -189 450 -162 q 449 -202 450 -192 q 447 -229 447 -213 l 436 -232 q 401 -208 413 -217 q 355 -150 364 -178 l 355 -93 l 377 -93 l 397 -126 q 411 -79 407 -108 q 415 -13 415 -49 q 406 4 409 -1 q 391 -36 392 -9 q 388 -70 389 -63 l 373 -70 q 302 40 355 10 q 245 80 248 70 q 241 106 241 90 q 240 135 241 121 q 233 175 239 150 q 199 293 229 186 q 159 453 169 401 q 114 625 148 504 q 47 864 79 745 q 15 1007 15 983 q 28 1030 15 1019 q 51 1042 40 1042 q 150 941 111 1042 q 195 822 172 882 q 243 697 219 766 q 278 573 268 629 l 289 564 q 328 685 298 581 q 373 822 349 760 q 421 986 382 843 q 474 1054 439 1054 q 558 940 507 1054 q 618 765 603 840 q 663 593 624 735 q 702 455 675 546 q 736 585 708 468 q 790 786 736 587 q 823 911 811 864 q 846 1016 843 991 q 855 1070 850 1042 q 891 1094 865 1094 q 961 1058 941 1094 q 973 988 973 1036 l 973 962 z "},"X":{"ha":641,"x_min":21,"x_max":620,"o":"m 620 37 q 614 -30 620 28 q 603 -94 608 -88 l 579 -94 q 590 -63 590 -81 q 587 -40 590 -54 q 579 15 579 -6 q 531 6 555 10 q 418 75 467 6 q 350 186 383 130 q 286 94 334 172 q 232 -24 232 6 q 244 -73 232 -31 q 259 -121 250 -93 l 259 -150 l 244 -153 q 210 -128 217 -153 q 202 -55 202 -103 l 202 -36 q 195 28 202 6 q 162 49 187 49 q 141 10 141 49 q 150 -57 141 -16 q 160 -103 154 -79 l 138 -103 q 123 -69 127 -88 q 118 -31 118 -49 q 120 -1 118 -22 q 121 30 121 19 q 118 61 121 40 q 103 120 111 90 q 165 295 103 156 q 226 452 226 434 q 174 594 226 461 q 75 846 85 819 q 21 1010 21 989 q 69 1075 21 1075 q 213 920 121 1075 q 332 715 272 817 q 391 859 344 739 q 446 992 419 932 q 476 1055 473 1051 q 522 1090 497 1090 q 579 1060 551 1090 q 608 1001 608 1030 l 620 723 l 620 706 q 617 682 620 691 q 608 665 615 673 q 577 693 585 676 q 569 735 569 709 q 579 810 569 751 q 585 858 585 843 q 575 905 585 885 q 494 673 558 883 q 433 470 473 605 q 525 280 479 377 q 620 37 620 82 m 611 -213 l 608 -226 l 594 -226 q 587 -216 588 -219 q 579 -180 579 -205 l 584 -154 q 605 -177 599 -163 q 611 -213 611 -192 m 165 -196 l 156 -213 q 130 -174 130 -195 q 138 -150 136 -159 q 165 -196 165 -165 z "},"Y":{"ha":729,"x_min":21,"x_max":730,"o":"m 730 597 q 717 570 730 591 q 695 589 703 576 q 687 630 687 602 q 688 646 687 638 q 696 669 688 654 l 708 669 q 724 638 717 659 q 730 597 730 617 m 730 742 q 722 729 724 735 q 708 723 720 723 q 691 740 694 723 q 687 810 687 757 l 687 883 l 678 893 q 617 747 666 885 q 569 594 569 609 q 588 518 569 579 q 600 483 597 489 l 600 376 l 579 371 q 552 424 557 371 q 540 488 546 476 q 456 290 495 425 q 370 -40 413 124 l 356 -40 q 340 -9 346 -24 q 331 19 335 6 q 309 -22 313 9 q 305 -84 305 -52 l 292 -84 q 281 -24 284 -52 q 278 22 278 4 q 279 52 278 43 q 283 67 280 60 q 244 114 262 91 q 208 204 208 160 q 256 392 208 220 q 304 576 304 564 q 224 691 304 581 q 111 865 171 766 q 63 940 84 905 q 21 1031 21 1009 q 54 1061 21 1042 q 96 1075 78 1075 q 208 997 123 1075 q 389 801 293 919 q 485 968 467 943 q 626 1085 563 1085 q 705 1057 681 1085 q 723 998 723 1036 q 721 972 723 985 q 717 947 718 959 q 724 891 717 916 q 730 859 730 865 l 730 742 m 379 -157 q 367 -159 373 -159 q 358 -159 361 -159 q 340 -157 343 -159 l 340 -88 l 350 -79 l 365 -79 q 379 -132 371 -109 l 379 -157 z "},"Z":{"ha":856,"x_min":25,"x_max":835,"o":"m 835 111 q 807 6 835 70 q 792 -55 792 -27 q 799 -84 798 -73 q 807 -130 807 -115 q 801 -177 807 -160 q 774 -195 795 -195 q 751 -177 757 -195 q 744 -129 744 -159 q 751 -51 744 -97 q 759 -6 754 -28 l 748 4 q 730 -37 735 -18 q 724 -72 724 -55 q 726 -94 726 -88 q 721 -115 726 -106 l 705 -115 q 706 -85 702 -106 q 711 -55 711 -64 q 695 -4 711 -28 q 650 19 679 19 q 615 14 630 19 q 585 4 600 9 l 325 4 q 302 -31 316 -9 q 281 -63 296 -42 q 295 -105 290 -90 q 308 -189 308 -154 q 305 -216 308 -208 q 283 -223 302 -223 q 254 -177 254 -223 q 264 -108 254 -154 q 269 -57 274 -61 q 230 -40 260 -45 q 195 -34 201 -36 q 153 1 163 -22 q 135 37 138 34 q 102 48 114 43 q 25 144 25 82 q 58 172 25 160 q 178 286 142 202 l 281 498 q 344 615 316 566 q 397 709 382 678 q 450 813 425 774 q 531 905 486 870 l 531 928 l 308 928 q 239 941 292 928 q 156 970 186 953 q 144 949 150 959 q 168 874 160 899 q 193 783 193 793 q 186 766 193 775 q 168 757 178 757 q 123 854 150 757 q 97 977 97 950 q 222 1051 97 1018 q 510 1085 346 1085 q 711 1047 609 1085 q 813 967 813 1009 q 792 935 813 943 q 745 928 772 928 q 726 928 735 928 q 701 891 711 920 q 682 834 691 861 q 644 738 660 781 q 608 645 611 651 q 503 394 531 461 q 445 253 453 277 l 519 253 q 572 253 546 253 q 660 246 597 253 q 771 214 723 239 q 835 111 835 178 m 216 648 q 207 623 216 641 l 189 623 q 184 630 186 627 q 172 654 172 650 l 189 684 q 207 667 198 678 q 216 648 216 656 z "},"[":{"ha":620,"x_min":16,"x_max":602,"o":"m 471 829 q 453 810 471 810 q 445 814 447 810 q 437 841 437 825 q 440 856 437 849 q 447 873 443 864 q 462 859 455 865 q 471 829 471 847 m 545 -211 q 543 -174 545 -181 q 528 -150 542 -166 q 519 -167 525 -159 q 512 -177 513 -175 q 529 -222 519 -198 q 543 -251 539 -245 l 545 -211 m 227 379 l 227 138 l 434 138 q 554 88 494 138 q 602 -3 602 49 q 588 -78 602 -37 q 558 -171 558 -169 q 573 -263 558 -193 q 588 -314 581 -302 l 588 -356 l 573 -359 q 552 -332 555 -359 q 543 -299 548 -304 q 522 -288 539 -295 q 503 -269 506 -281 q 495 -208 495 -241 q 495 -182 495 -195 q 497 -157 495 -169 q 486 -117 497 -129 q 437 -105 476 -105 q 380 -114 424 -105 q 283 -138 337 -124 q 254 -139 274 -139 q 220 -138 230 -138 q 177 -147 192 -138 q 163 -189 163 -156 q 176 -237 163 -204 q 189 -301 189 -271 q 184 -337 189 -323 q 177 -362 180 -350 l 162 -362 q 153 -336 156 -352 q 150 -305 150 -320 q 154 -255 150 -280 q 163 -213 159 -230 q 90 -115 163 -184 q 16 1 16 -46 q 36 40 16 7 q 46 63 46 57 l 39 269 l 39 534 l 75 973 q 54 1021 67 1000 q 46 1061 46 1033 q 120 1134 46 1111 q 262 1152 175 1152 q 377 1144 298 1152 q 506 1124 456 1136 q 551 1114 528 1118 q 585 1073 585 1100 q 552 956 585 1033 q 536 844 536 917 q 522 840 528 840 q 507 858 507 840 q 509 901 507 877 q 512 947 510 925 q 504 950 507 947 q 500 953 501 952 q 482 935 492 953 q 450 895 459 895 q 430 917 447 895 q 410 929 419 929 q 361 917 400 922 q 245 911 323 911 q 226 913 230 913 q 212 900 216 913 q 208 847 208 888 q 213 735 210 802 q 222 542 217 668 q 227 379 227 416 z "},"\\":{"ha":407,"x_min":0,"x_max":0,"o":""},"]":{"ha":620,"x_min":16,"x_max":602,"o":"m 181 841 q 177 820 181 831 q 165 810 172 810 q 147 829 147 810 q 151 853 147 844 q 171 873 166 868 q 177 856 174 864 q 181 841 181 849 m 602 1 q 528 -115 602 -46 q 455 -213 455 -184 q 465 -262 461 -238 q 468 -305 468 -286 q 456 -362 468 -340 l 442 -362 q 433 -333 437 -347 q 430 -301 430 -319 q 446 -224 430 -266 q 455 -189 455 -201 q 442 -148 455 -157 q 400 -139 428 -139 q 359 -141 373 -141 q 340 -138 350 -141 q 262 -120 329 -136 q 181 -105 195 -105 q 133 -117 145 -105 q 121 -156 121 -129 q 121 -182 121 -168 q 123 -211 121 -196 q 121 -239 123 -223 q 116 -267 120 -254 q 97 -287 112 -280 q 76 -299 81 -293 q 66 -332 70 -304 q 45 -359 61 -359 l 30 -356 l 30 -314 q 48 -242 36 -304 q 60 -171 60 -180 q 31 -79 60 -163 q 16 -3 16 -34 q 63 87 16 48 q 184 138 124 138 l 391 138 l 391 379 q 400 665 391 476 q 410 847 403 730 q 407 902 410 891 q 392 913 404 913 q 373 911 380 911 q 253 916 284 911 q 208 929 230 922 q 184 912 196 929 q 168 895 172 895 q 142 924 157 895 q 118 953 127 953 q 106 947 109 947 q 108 894 106 914 q 111 858 109 874 q 96 840 111 840 q 82 844 90 840 q 67 955 82 920 q 33 1073 33 1036 q 66 1112 33 1099 q 112 1124 105 1122 q 237 1144 159 1136 q 356 1152 316 1152 q 497 1134 440 1152 q 572 1061 572 1111 q 564 1021 572 1033 q 543 973 551 998 l 579 534 l 579 269 l 572 63 q 587 31 573 55 q 602 1 602 6 m 106 -177 q 90 -150 94 -160 q 76 -175 79 -163 q 73 -211 73 -187 l 75 -251 q 91 -219 81 -244 q 106 -177 97 -205 z "},"^":{"ha":407,"x_min":0,"x_max":0,"o":""},"_":{"ha":1389,"x_min":-18,"x_max":1401,"o":"m -18 0 l 1401 0 l 1401 150 l -18 150 l -18 0 z "},"`":{"ha":1431,"x_min":27,"x_max":1386,"o":"m 1386 69 l 27 69 l 27 1046 l 1386 1046 l 1386 69 m 1368 87 l 1368 1027 l 45 1027 l 45 87 l 1368 87 m 1287 651 q 1197 420 1287 507 q 976 332 1106 332 l 741 332 l 741 507 l 653 507 l 653 332 l 575 332 l 575 507 l 290 507 q 292 421 290 473 q 293 352 293 368 q 274 244 293 277 q 174 165 250 204 l 135 165 l 135 205 q 202 302 202 245 l 202 949 l 298 949 l 298 636 l 614 949 l 653 949 l 653 566 l 741 566 l 741 949 l 1025 949 q 1221 856 1176 898 q 1287 651 1287 793 m 1179 651 q 1149 801 1179 756 q 955 889 1118 846 l 838 889 l 838 391 l 917 391 q 1031 415 988 403 q 1179 651 1179 456 m 566 578 l 566 781 l 359 578 l 566 578 z "},"a":{"ha":778,"x_min":9,"x_max":757,"o":"m 747 230 l 732 230 l 732 274 q 745 253 744 257 q 747 230 747 248 m 757 350 q 754 337 757 346 q 747 293 747 313 l 732 293 q 723 323 726 317 q 696 338 714 338 q 668 330 678 338 q 659 296 659 322 q 681 184 659 287 q 703 54 703 81 q 678 -21 703 13 q 665 -55 665 -39 l 688 -148 l 688 -183 l 679 -187 q 656 -120 668 -172 q 636 -16 645 -69 q 618 1 626 -6 q 587 55 602 19 q 537 213 552 141 q 506 284 522 284 q 379 267 494 284 q 258 246 263 250 q 242 210 253 242 q 160 1 210 108 q 121 15 135 15 q 85 -21 96 15 q 67 -129 76 -75 q 47 -141 63 -136 q 19 -177 31 -147 l 9 -177 l 9 -61 q 49 127 25 19 q 156 521 97 332 q 220 709 193 638 q 259 814 242 768 q 284 888 275 861 q 328 1012 317 979 q 346 1064 338 1046 q 376 1099 361 1099 q 391 1090 385 1099 q 402 1076 397 1081 q 418 1072 407 1072 q 438 1071 427 1072 q 461 1060 449 1070 q 513 943 473 1049 q 572 711 563 810 q 586 617 572 679 q 617 488 600 555 q 691 413 626 422 q 757 350 757 404 m 626 -67 q 618 -97 626 -73 q 611 -120 617 -105 q 601 -107 606 -114 q 596 -70 596 -100 l 596 -49 q 617 -27 596 -37 q 626 -67 621 -46 m 626 -230 q 623 -240 626 -233 q 617 -254 620 -247 l 606 -254 q 587 -205 587 -232 q 591 -186 587 -195 q 602 -168 596 -177 q 618 -193 611 -174 q 626 -230 626 -213 m 169 -100 l 163 -36 l 169 -100 m 93 -211 l 69 -216 q 72 -205 70 -210 q 82 -183 82 -186 q 93 -211 90 -193 m 485 419 q 460 604 485 434 q 431 783 436 774 q 403 763 407 769 q 356 581 371 642 q 305 391 310 398 l 485 419 z "},"b":{"ha":630,"x_min":18,"x_max":606,"o":"m 606 334 q 506 117 606 214 q 404 19 455 67 q 398 25 400 24 q 377 39 383 39 q 357 29 374 39 q 308 9 340 19 q 239 -15 275 -1 q 216 -84 227 -24 q 214 -94 214 -88 q 214 -100 214 -99 q 221 -129 214 -112 q 227 -160 227 -147 l 223 -187 l 198 -187 q 199 -169 199 -181 q 198 -145 199 -162 q 198 -105 198 -129 l 198 -88 q 184 -58 198 -79 q 160 -37 171 -37 q 132 -55 139 -37 q 126 -108 126 -72 q 127 -147 126 -118 q 129 -193 129 -177 q 118 -269 129 -236 q 98 -237 105 -257 q 91 -193 91 -217 q 99 -136 91 -168 q 106 -109 100 -126 q 100 -81 106 -99 q 87 -15 87 -42 q 112 34 87 6 q 136 82 136 61 q 114 142 136 99 q 93 253 93 186 q 85 255 88 253 q 81 259 82 257 q 75 256 76 257 q 48 204 60 242 l 22 204 q 20 232 22 219 q 18 257 18 245 q 39 361 18 334 q 84 418 82 415 q 85 449 85 422 q 85 491 85 470 q 84 533 84 512 l 84 635 q 94 748 84 651 q 106 852 105 844 q 124 977 114 937 q 178 1052 144 1052 q 205 1046 195 1052 q 232 1025 216 1040 q 320 1072 275 1054 q 392 1090 365 1090 q 498 1039 447 1090 q 548 928 548 989 q 513 778 548 868 q 430 599 471 688 q 563 479 528 525 q 606 334 606 419 m 422 -55 q 404 -93 422 -78 q 395 -85 400 -88 q 386 -61 386 -76 q 395 -28 386 -46 l 410 -28 q 422 -55 422 -46 m 57 126 l 52 108 l 31 108 l 22 121 l 22 178 l 43 178 q 55 147 52 159 q 57 126 57 135 m 352 926 l 352 941 l 331 941 q 259 868 272 895 q 251 820 251 853 q 245 778 251 796 l 245 673 l 352 926 m 404 421 q 398 463 404 445 q 373 507 392 482 l 359 507 q 269 410 356 501 q 232 358 233 373 q 224 264 226 299 q 223 174 223 229 l 223 144 q 356 275 308 198 q 404 421 404 352 z "},"c":{"ha":659,"x_min":28,"x_max":639,"o":"m 572 540 q 549 515 572 515 q 525 529 534 515 q 515 564 515 543 q 524 609 524 570 l 540 614 q 562 584 552 614 q 572 540 572 554 m 639 214 q 624 157 639 192 q 591 69 591 81 q 602 19 591 58 q 614 -36 614 -21 q 593 -57 614 -57 q 572 -38 579 -57 q 566 10 566 -19 q 569 67 566 37 q 572 97 572 96 q 540 44 546 78 q 534 -30 534 10 q 545 -96 534 -63 q 555 -147 555 -129 q 536 -171 555 -171 q 510 -147 525 -171 q 495 -108 495 -124 q 515 -48 495 -85 q 524 -27 524 -30 q 519 -13 521 -19 q 510 33 513 7 q 504 35 507 33 q 500 39 501 37 q 463 12 488 24 q 398 0 439 0 q 335 10 373 0 q 295 19 298 19 l 280 -1 q 251 29 257 12 q 241 49 244 46 q 94 196 168 123 q 28 428 28 301 q 58 605 28 519 q 171 837 88 691 q 299 1003 229 941 q 480 1081 388 1081 q 569 1014 525 1081 q 614 873 614 947 q 605 811 614 865 q 576 623 587 705 l 552 623 q 539 650 543 641 q 534 672 534 659 q 543 712 534 682 q 552 748 552 742 q 510 772 552 756 q 468 901 468 789 l 459 905 q 389 844 442 905 q 284 669 325 768 q 243 530 254 596 q 232 407 232 464 q 253 277 232 328 q 341 207 281 207 q 458 250 382 207 q 552 293 534 293 q 613 270 587 293 q 639 214 639 247 m 280 -46 q 256 -91 280 -70 q 241 -57 241 -73 q 244 -34 241 -46 q 251 -10 247 -22 l 269 -10 l 280 -46 z "},"d":{"ha":635,"x_min":24,"x_max":618,"o":"m 618 615 q 612 482 618 543 q 576 308 602 376 q 558 241 566 280 q 549 156 549 202 q 557 75 549 127 q 560 42 560 54 q 537 18 560 18 q 518 46 518 18 q 519 79 518 54 q 521 118 521 103 q 519 159 521 142 q 510 198 516 177 q 450 138 498 189 q 382 63 401 88 q 370 73 379 64 q 356 81 362 81 q 323 64 335 69 q 250 46 281 46 q 227 49 242 46 l 241 -100 q 230 -142 233 -129 q 214 -184 219 -184 q 189 -160 189 -184 q 199 -136 189 -150 q 177 -97 177 -117 q 180 -70 177 -88 q 184 -43 184 -51 q 174 -5 184 -15 q 147 4 165 4 q 103 1 118 1 q 76 12 93 1 q 24 120 24 46 q 32 147 24 138 q 41 159 40 157 q 42 187 42 162 q 39 307 42 208 q 36 465 36 406 q 46 608 36 518 q 66 781 55 699 q 78 897 72 855 q 99 1025 84 940 q 102 1058 100 1042 q 129 1081 108 1081 q 171 1055 148 1081 q 190 1042 183 1042 q 243 1069 213 1057 q 311 1081 274 1081 q 531 946 443 1081 q 618 615 618 811 m 409 -37 q 392 -55 409 -55 q 373 -46 379 -55 q 367 -31 368 -34 l 371 34 q 397 -3 386 19 q 409 -37 409 -25 m 427 729 q 412 878 427 820 q 383 935 398 935 q 302 893 358 935 q 227 835 265 864 q 230 644 227 751 q 232 524 232 536 q 241 394 232 465 q 262 274 250 323 q 400 486 358 313 q 427 729 427 599 z "},"e":{"ha":688,"x_min":18,"x_max":669,"o":"m 524 816 q 504 799 524 799 q 486 826 486 799 q 497 852 486 828 q 516 837 515 840 q 524 816 524 826 m 669 123 q 645 42 669 90 q 621 -18 621 -6 q 638 -94 621 -36 q 654 -138 647 -129 l 654 -172 l 638 -175 q 613 -151 618 -175 q 602 -123 608 -127 q 579 -114 597 -120 q 557 -98 561 -109 q 551 -75 552 -87 q 549 -49 549 -63 q 550 -28 549 -39 q 552 -3 551 -16 q 535 31 552 24 q 486 37 518 37 q 409 27 468 37 q 310 10 316 10 q 294 9 304 9 q 280 9 284 9 l 244 9 q 196 1 211 9 q 181 -33 181 -6 q 195 -73 181 -45 q 210 -126 210 -102 q 204 -161 210 -148 q 196 -177 198 -174 l 180 -177 q 166 -129 166 -159 q 174 -82 166 -111 q 181 -52 181 -54 q 100 28 181 -28 q 18 126 18 85 q 39 157 18 130 q 52 177 51 172 l 43 349 l 43 570 l 84 935 q 64 971 76 956 q 52 1009 52 985 q 123 1068 52 1051 q 290 1085 195 1085 q 419 1078 334 1085 q 563 1061 504 1072 q 612 1052 587 1057 q 650 1019 650 1042 q 623 935 650 971 q 596 828 596 899 l 581 825 q 564 840 564 825 q 566 876 564 856 q 569 914 567 895 q 559 916 561 914 q 555 919 557 917 q 524 888 548 919 q 501 871 512 871 q 481 885 495 871 q 455 899 467 899 q 400 889 445 893 q 272 885 355 885 q 250 886 256 886 q 235 870 238 886 q 232 831 232 855 q 236 766 233 816 q 238 645 238 715 q 246 639 242 642 q 274 636 250 636 q 413 651 310 636 q 519 668 465 659 q 618 638 573 668 q 663 561 663 609 q 648 482 663 519 q 626 436 636 458 q 623 410 623 421 q 624 384 623 397 q 627 361 626 371 q 609 340 627 340 q 585 370 585 340 q 593 416 585 380 q 596 439 596 431 q 579 476 596 476 q 548 467 557 476 q 539 443 539 458 q 542 421 539 434 q 545 406 545 407 q 534 403 542 404 q 518 401 527 403 q 515 433 515 412 q 516 455 515 442 q 518 473 518 468 q 498 494 518 494 q 425 479 491 494 q 253 440 254 440 l 253 239 l 482 239 q 585 214 525 239 q 669 123 669 178 m 606 -51 q 605 -20 606 -25 q 587 0 603 -15 q 576 -15 582 -9 q 569 -22 570 -21 q 587 -59 576 -39 q 603 -85 597 -79 l 606 -51 z "},"f":{"ha":742,"x_min":28,"x_max":717,"o":"m 602 759 q 585 754 588 754 q 564 786 564 754 l 569 807 l 587 807 l 602 783 l 602 759 m 717 944 q 678 867 717 934 q 657 808 657 831 q 669 778 657 804 q 676 748 676 762 q 668 727 676 736 q 650 717 660 717 q 623 730 630 717 q 617 774 617 744 q 618 823 617 787 q 620 862 620 859 l 611 871 l 587 834 q 565 875 569 849 q 539 901 561 901 q 407 882 452 889 q 250 844 272 859 l 250 618 q 536 588 465 618 q 633 409 633 546 l 630 305 q 614 299 621 302 q 592 335 605 299 q 582 394 579 370 l 578 427 l 555 398 q 529 421 540 404 q 509 437 518 437 q 421 425 453 428 q 250 412 310 412 l 250 52 q 217 -25 250 13 q 184 -96 184 -64 q 200 -139 184 -111 q 216 -190 216 -168 q 190 -223 216 -223 q 159 -169 168 -223 q 142 -79 145 -87 q 136 -114 136 -103 q 138 -132 138 -126 q 133 -159 138 -141 l 123 -165 q 108 -148 108 -150 q 100 -123 103 -135 l 100 -31 q 115 -27 108 -27 q 137 -43 132 -27 q 147 -75 142 -58 q 156 -34 156 -54 q 114 6 156 -22 q 50 90 64 39 q 32 168 36 141 q 28 269 28 195 q 52 587 28 427 q 103 911 76 748 q 69 962 84 938 q 54 1015 54 986 q 119 1066 54 1051 q 307 1082 184 1082 q 602 1060 516 1082 q 717 944 717 1030 z "},"g":{"ha":916,"x_min":33,"x_max":893,"o":"m 893 190 l 877 187 q 849 233 849 187 q 862 310 849 266 q 852 318 855 314 q 837 322 849 322 q 775 302 796 308 q 696 274 708 280 q 730 171 730 227 q 722 130 730 157 q 705 75 714 103 q 721 30 705 55 q 759 -43 759 -27 q 724 -70 759 -70 q 685 -44 696 -70 q 673 22 673 -18 q 676 70 673 51 q 681 103 678 90 q 659 57 666 91 q 653 -27 653 22 q 657 -133 653 -81 q 666 -223 662 -186 q 647 -227 656 -224 q 620 -204 633 -227 q 608 -156 608 -181 q 615 -118 608 -141 q 633 -49 633 -66 q 610 4 633 -22 q 557 30 587 30 l 431 4 q 401 1 410 1 q 352 7 377 1 q 304 18 328 12 q 284 -16 299 18 q 271 -51 280 -27 q 292 -76 271 -52 q 313 -151 313 -100 l 302 -183 l 287 -183 q 263 -137 269 -159 q 256 -93 256 -115 q 260 -54 256 -78 q 265 -19 265 -30 q 262 0 265 -6 q 227 40 253 21 q 142 108 145 105 q 57 253 81 180 q 33 409 33 326 q 62 566 33 479 q 165 788 91 654 q 313 999 238 922 q 445 1076 388 1076 q 605 1009 521 1076 q 727 813 703 929 q 732 768 732 787 q 727 720 732 741 q 718 685 721 699 q 736 650 718 666 q 753 617 753 635 q 742 585 753 600 q 723 570 732 570 q 682 589 694 570 q 670 639 670 608 q 681 708 670 669 q 687 724 682 714 q 640 751 687 750 q 557 807 593 753 q 512 882 527 853 q 474 958 492 919 q 407 841 462 947 q 293 585 335 705 q 233 299 233 416 q 266 205 233 245 q 341 165 299 165 q 409 178 365 165 q 453 211 453 192 q 400 273 424 239 q 376 340 376 307 q 452 403 376 370 q 668 442 542 442 q 795 422 732 442 q 893 331 893 391 l 893 190 m 368 -199 q 370 -219 368 -214 q 373 -227 371 -223 q 355 -244 364 -235 l 329 -219 l 329 -139 l 350 -139 q 362 -161 356 -150 q 368 -199 368 -172 z "},"h":{"ha":868,"x_min":33,"x_max":844,"o":"m 844 238 q 834 193 844 211 l 802 193 l 798 245 q 806 284 798 265 q 819 317 814 304 q 840 284 835 301 q 844 238 844 268 m 844 512 q 837 474 844 489 q 829 446 831 458 q 837 415 834 433 q 841 376 841 397 l 823 371 q 802 419 802 371 q 819 488 802 450 q 802 501 810 494 q 736 458 751 501 q 729 371 729 437 l 729 189 q 669 91 729 136 q 609 10 609 46 q 623 -76 609 -13 q 636 -135 627 -96 q 629 -160 636 -156 q 606 -165 623 -165 q 575 -126 588 -165 q 566 -87 572 -114 q 579 -9 575 -34 q 593 84 593 72 q 587 105 593 90 q 561 184 567 157 q 545 333 549 253 q 522 436 540 413 q 392 404 495 419 q 265 371 289 389 q 260 178 265 253 q 250 58 254 118 q 254 -79 250 -22 q 265 -214 265 -213 q 244 -217 254 -217 q 223 -214 235 -217 q 217 -184 223 -205 q 211 -148 211 -163 q 222 -88 211 -141 q 232 -6 232 -36 q 223 27 232 12 q 195 16 202 18 q 175 13 187 13 q 68 93 103 13 q 33 295 33 172 l 61 714 l 84 886 q 98 995 91 944 q 114 1058 105 1046 q 146 1074 124 1070 q 190 1081 168 1078 q 239 1028 216 1081 q 271 853 271 959 l 271 662 q 266 623 271 650 q 262 585 262 596 q 286 555 262 555 q 328 560 316 555 q 406 581 361 572 q 498 591 450 590 q 546 630 546 593 q 546 671 546 651 q 545 712 545 691 l 545 730 q 558 883 554 832 q 576 1048 572 1033 q 630 1081 591 1081 q 703 935 690 1081 q 717 784 717 789 l 733 623 q 789 579 733 603 q 844 512 844 555 m 693 -18 q 692 -46 693 -21 q 691 -75 691 -70 l 691 -100 l 668 -100 q 660 -71 665 -87 q 656 -48 656 -55 q 669 -6 663 -36 q 675 58 675 24 q 697 36 697 42 q 695 13 697 31 q 693 -18 693 -6 z "},"i":{"ha":263,"x_min":18,"x_max":238,"o":"m 238 76 q 228 23 238 45 q 193 1 219 1 q 85 69 139 1 q 18 280 18 153 q 19 354 18 320 q 25 436 21 388 l 48 774 q 67 998 48 904 q 120 1093 87 1093 q 189 999 148 1093 q 229 822 229 905 q 230 551 229 653 q 235 303 232 449 q 238 76 238 157 m 229 -220 q 199 -235 214 -235 q 174 -210 174 -235 q 183 -172 174 -195 q 192 -153 186 -165 q 178 -141 183 -145 q 168 -105 168 -130 q 176 -65 168 -91 q 195 -39 184 -39 q 213 -51 207 -39 q 219 -79 219 -63 q 210 -142 219 -123 q 199 -154 207 -148 q 208 -177 205 -169 q 229 -220 220 -204 z "},"j":{"ha":533,"x_min":24,"x_max":509,"o":"m 509 253 q 477 105 509 223 q 437 -27 446 -13 q 415 12 422 -12 q 391 36 407 36 q 352 17 383 36 q 296 -1 320 -1 q 177 49 248 -1 q 76 150 120 90 q 61 121 64 138 q 57 82 57 105 q 52 36 57 52 q 43 126 52 90 q 24 239 24 204 q 51 337 24 293 q 120 382 78 382 q 192 280 150 382 q 302 178 233 178 q 332 236 326 178 q 338 500 338 295 q 336 754 338 612 q 334 914 334 896 q 352 1048 334 1010 q 407 1085 371 1085 q 468 1003 443 1085 q 489 852 489 935 q 502 709 495 784 q 509 594 509 633 l 509 253 m 468 -172 q 447 -192 468 -192 q 423 -172 436 -192 q 410 -120 410 -153 q 415 -84 413 -96 q 434 -48 422 -48 q 461 -88 453 -48 q 468 -172 468 -127 m 120 -79 q 96 -55 105 -73 l 100 45 q 120 19 112 36 l 120 -79 m 90 -145 l 73 -148 q 57 -125 63 -148 q 51 -72 51 -102 q 54 -36 51 -48 q 58 -18 57 -24 q 78 -72 78 -39 q 90 -121 78 -105 l 90 -145 z "},"k":{"ha":718,"x_min":27,"x_max":694,"o":"m 554 623 q 554 615 554 618 q 549 578 549 585 q 552 551 549 569 l 524 546 q 525 567 525 554 q 524 602 524 588 q 525 637 524 629 q 539 660 527 645 q 549 642 543 651 q 554 623 554 633 m 554 486 l 549 458 l 539 458 q 531 468 533 465 q 524 488 524 480 q 534 509 530 500 l 554 486 m 694 -13 q 685 -36 690 -24 l 672 -36 q 665 -12 668 -24 q 632 6 654 6 q 600 -10 606 6 q 581 -54 585 -48 q 494 52 581 15 q 392 124 433 78 q 287 259 326 198 q 219 349 235 340 l 219 284 q 236 160 226 257 q 245 45 245 63 q 248 21 248 30 q 245 -6 248 4 q 232 -27 241 -16 q 212 -2 223 -10 q 180 6 201 6 q 51 145 82 6 q 31 436 31 230 l 27 711 q 31 834 27 769 q 43 972 34 899 q 67 1066 52 1045 q 105 1087 81 1087 q 150 1046 127 1087 q 178 911 178 994 q 180 777 178 853 q 183 691 183 700 l 192 682 q 270 813 236 757 q 361 940 304 868 q 395 988 382 973 q 467 1036 436 1036 q 527 987 504 1036 q 549 876 549 938 l 549 720 l 539 706 l 525 706 q 510 762 510 735 q 512 796 512 786 q 503 829 512 814 q 477 784 488 811 q 430 673 449 705 q 368 578 394 612 q 338 525 338 536 q 400 431 338 518 q 525 257 462 344 q 657 81 632 117 q 694 -13 694 30 m 694 -153 q 673 -177 694 -177 q 666 -172 668 -174 q 659 -150 659 -165 q 663 -120 659 -139 q 672 -91 668 -100 q 690 -123 685 -106 q 694 -153 694 -139 m 603 -147 l 590 -147 l 585 -100 q 603 -114 593 -103 l 603 -147 m 605 -238 l 590 -238 l 581 -213 q 584 -195 581 -208 q 590 -178 588 -183 l 605 -178 l 605 -238 m 256 -169 l 238 -174 q 222 -156 230 -174 q 213 -124 213 -138 q 218 -100 213 -118 q 227 -73 223 -82 q 243 -106 238 -85 q 256 -151 248 -126 l 256 -169 z "},"l":{"ha":742,"x_min":15,"x_max":726,"o":"m 726 36 q 722 -7 726 7 q 703 -40 718 -21 q 703 -6 703 -22 q 705 27 703 10 q 703 60 705 48 l 693 64 q 669 22 684 64 q 654 -33 654 -19 q 665 -68 654 -52 q 690 -84 676 -84 q 703 -78 694 -84 q 712 -103 712 -99 q 708 -127 712 -111 l 693 -108 q 678 -120 685 -114 q 662 -127 670 -127 q 632 -97 632 -127 q 635 -66 632 -81 q 645 -10 645 -13 q 638 22 645 -1 q 621 46 632 46 q 594 36 606 39 q 494 25 554 25 q 407 28 449 25 q 326 30 365 30 q 291 15 301 30 q 281 -25 281 0 q 289 -78 281 -42 q 292 -97 292 -91 q 285 -117 292 -108 q 271 -127 278 -127 q 251 -97 251 -127 q 255 -52 251 -85 q 259 -12 259 -19 q 130 40 168 -12 q 88 64 114 64 l 72 60 q 70 37 72 48 q 67 21 67 25 q 25 109 49 51 q 15 135 22 118 q 43 169 15 150 q 72 241 72 189 q 76 498 72 266 q 81 790 81 730 q 86 810 81 793 q 90 831 91 828 q 81 895 81 871 q 87 947 81 919 q 106 1060 97 1033 q 126 1087 115 1087 q 218 995 181 1087 q 254 757 254 904 q 257 531 254 659 q 259 389 259 404 q 259 256 259 322 q 268 219 260 233 q 304 205 275 205 q 370 209 323 205 q 436 213 418 213 q 685 177 635 213 q 726 36 726 148 m 287 -193 l 278 -198 l 278 -174 l 287 -193 m 76 -36 q 58 -27 66 -33 l 58 -3 q 76 -16 66 -6 l 76 -36 z "},"m":{"ha":850,"x_min":28,"x_max":826,"o":"m 826 139 q 822 34 823 70 q 804 -90 814 -73 q 789 -49 802 -70 q 783 -82 786 -64 q 771 -114 780 -99 q 752 -90 757 -103 q 747 -61 747 -76 q 748 -25 747 -43 q 727 -1 745 -15 q 693 28 700 19 q 644 115 651 73 q 638 180 641 147 q 609 350 617 272 q 593 488 597 474 q 549 355 584 479 q 509 204 513 230 q 487 103 497 138 q 455 6 477 67 q 446 -51 449 -30 q 424 -72 443 -72 q 406 -59 410 -72 q 400 -38 403 -46 q 386 -21 397 -30 q 353 10 358 3 q 338 79 341 31 q 313 186 335 126 q 236 401 274 293 q 211 446 229 422 l 207 -108 q 204 -120 205 -117 q 183 -132 198 -132 q 166 -99 166 -132 l 166 -66 q 159 -17 166 -37 q 125 16 151 3 q 69 66 99 30 q 28 157 28 114 l 28 474 l 81 862 q 61 914 78 880 q 45 962 45 947 q 64 988 45 988 q 97 988 81 988 q 113 1013 102 991 q 139 1036 124 1036 q 193 956 180 1036 q 197 903 196 931 q 214 849 198 876 q 271 739 238 807 q 354 548 317 642 q 400 442 391 453 q 450 575 410 447 q 500 745 491 702 q 534 862 509 787 q 564 946 549 904 q 560 1004 567 962 q 554 1052 554 1045 q 560 1088 554 1075 q 582 1102 566 1102 q 614 1088 600 1102 q 633 1075 627 1075 q 648 1084 635 1075 q 678 1093 662 1093 q 748 1048 729 1093 q 762 955 762 1018 q 761 920 762 937 q 760 889 760 904 l 757 846 q 733 883 733 867 q 736 900 733 889 q 735 919 738 911 q 718 891 720 896 q 715 874 715 885 q 745 744 717 874 q 796 467 774 614 q 826 139 826 268 m 434 -132 q 433 -154 434 -144 q 430 -177 431 -165 q 433 -201 430 -192 l 413 -201 q 400 -141 410 -195 q 395 -117 398 -133 q 404 -99 400 -108 q 425 -114 416 -103 q 434 -132 434 -124 m 198 -214 l 175 -214 q 172 -210 172 -211 q 165 -186 165 -195 l 171 -163 l 193 -163 q 202 -190 198 -177 l 198 -214 z "},"n":{"ha":694,"x_min":16,"x_max":670,"o":"m 54 882 l 45 877 l 36 891 l 36 928 l 49 928 l 54 882 m 670 40 q 656 -51 670 -19 q 641 -115 641 -82 q 645 -139 644 -127 q 659 -239 654 -192 l 635 -239 q 622 -213 626 -226 q 618 -184 618 -199 q 621 -151 618 -174 q 624 -118 624 -129 q 533 46 624 -63 q 436 198 470 121 q 391 289 419 235 q 352 363 371 326 q 313 450 334 400 q 272 528 287 512 l 266 519 q 278 437 275 470 q 292 248 292 329 l 263 -124 q 268 -151 263 -139 q 292 -189 272 -163 l 292 -202 q 277 -211 284 -207 q 248 -186 256 -211 q 239 -127 239 -162 q 240 -82 239 -91 q 244 -67 241 -73 q 228 -9 239 -25 q 190 7 217 7 q 147 1 171 7 q 99 79 114 52 q 69 174 69 130 q 71 373 69 262 q 73 500 73 485 q 83 567 79 527 q 87 650 87 608 l 87 769 l 102 892 q 87 946 102 919 q 55 973 72 973 q 40 965 48 973 q 16 1013 16 992 q 22 1033 21 1027 q 37 1054 31 1054 q 52 1048 43 1054 q 111 1019 72 1034 q 122 1051 117 1030 q 144 1073 127 1073 q 201 1019 177 1073 q 235 895 217 956 q 272 838 238 888 q 305 783 289 816 q 364 662 313 769 q 453 480 439 503 l 453 736 q 470 877 453 781 q 522 1010 492 1010 q 617 670 576 1010 q 645 437 629 570 q 654 347 654 367 q 650 317 654 331 l 670 40 m 180 -129 l 156 -129 l 156 -34 q 173 -65 171 -52 q 180 -91 175 -78 l 180 -129 m 184 -193 l 180 -202 l 165 -202 l 169 -160 q 184 -193 180 -175 z "},"o":{"ha":676,"x_min":24,"x_max":653,"o":"m 653 418 q 608 151 653 310 q 585 37 585 72 q 582 1 584 22 q 581 -34 581 -19 l 581 -70 q 590 -108 581 -79 q 599 -160 599 -136 q 593 -187 599 -180 q 567 -195 587 -195 q 536 -166 548 -195 q 524 -114 524 -138 q 545 -52 539 -76 q 567 94 567 27 l 567 120 q 566 135 566 130 q 497 73 543 115 q 452 31 462 43 q 436 1 442 18 q 431 -31 431 -15 q 433 -64 433 -55 q 430 -85 433 -75 q 413 -106 428 -96 q 329 4 413 3 q 153 93 244 6 q 64 245 103 139 q 24 453 24 350 q 63 685 24 555 q 214 958 117 864 q 284 1021 250 994 q 401 1079 359 1079 q 443 1019 410 1079 q 506 925 471 968 q 549 852 522 904 q 590 763 576 801 q 641 583 629 650 q 653 418 653 516 m 453 -220 l 449 -245 l 422 -245 q 407 -196 407 -219 q 410 -180 407 -187 q 422 -157 413 -174 l 437 -157 q 451 -202 449 -192 q 453 -220 453 -213 m 476 439 q 450 735 476 608 q 380 925 419 889 q 248 657 295 840 q 213 406 213 516 q 245 223 213 275 q 344 171 277 171 q 452 277 418 171 q 476 439 476 352 z "},"p":{"ha":617,"x_min":13,"x_max":596,"o":"m 596 772 q 477 501 596 614 q 334 394 406 447 q 312 346 322 380 q 302 278 302 311 q 307 245 302 259 l 307 204 l 286 199 q 280 230 281 214 q 278 256 278 245 q 280 288 278 268 q 281 316 281 308 q 275 353 281 340 q 250 380 269 367 l 222 -123 q 192 -85 192 -126 q 193 -57 192 -78 q 195 -22 195 -36 q 190 21 195 -1 l 181 30 q 163 -1 171 16 q 150 22 154 9 q 144 48 147 36 q 66 145 105 96 q 34 334 34 216 q 49 550 34 418 q 81 820 64 682 q 75 837 75 831 l 52 841 q 42 789 42 816 q 43 759 42 778 q 45 730 45 739 q 39 702 45 714 q 24 786 36 714 q 13 849 21 807 q 51 935 13 893 q 90 968 63 949 q 111 1037 103 985 q 148 1090 118 1090 q 193 1075 180 1090 q 213 1042 205 1054 q 274 1073 242 1057 q 349 1096 323 1096 q 533 982 450 1096 q 596 772 596 895 m 163 -55 q 154 -85 163 -64 l 139 -85 q 135 -48 135 -57 q 144 -36 141 -42 q 163 -55 163 -45 m 437 889 l 437 913 q 427 962 437 952 q 370 973 416 973 q 284 958 317 973 q 230 883 235 935 l 245 578 q 383 712 323 606 q 437 889 437 808 z "},"q":{"ha":712,"x_min":25,"x_max":700,"o":"m 700 -61 q 696 -96 700 -76 q 685 -205 685 -141 q 662 -227 685 -227 q 641 -199 641 -227 q 648 -147 641 -192 q 651 -114 651 -129 q 647 -90 651 -99 l 609 -90 l 609 -253 q 596 -257 602 -254 q 575 -245 585 -257 q 564 -223 564 -233 q 573 -201 564 -219 q 582 -175 582 -183 q 542 -72 582 -145 q 464 33 512 -16 q 435 -18 442 21 q 413 -75 428 -57 q 406 -40 406 -55 l 406 -24 q 397 7 406 -6 q 251 73 320 39 q 136 166 183 108 q 46 355 75 241 q 25 527 25 439 q 46 659 25 590 q 127 849 66 729 q 227 989 157 913 q 385 1088 317 1088 q 442 1030 422 1049 q 515 953 477 991 q 570 884 545 923 q 609 799 596 844 q 651 660 629 733 q 673 474 673 587 q 647 274 673 346 q 585 148 615 211 q 629 98 585 147 q 673 28 673 49 q 681 19 678 24 q 700 -61 700 -10 m 446 -183 q 424 -208 446 -208 q 406 -159 406 -208 l 410 -118 l 422 -118 q 441 -146 436 -133 q 446 -183 446 -159 m 480 632 q 443 853 480 745 q 391 958 415 934 q 251 720 301 868 q 213 504 213 603 q 228 370 213 453 q 277 253 244 287 q 296 243 287 248 q 313 224 305 238 l 332 224 q 278 352 299 293 q 262 400 271 371 q 272 419 262 412 q 308 427 283 427 q 378 403 338 427 q 431 358 418 379 q 474 524 462 407 q 480 632 477 563 z "},"r":{"ha":718,"x_min":25,"x_max":714,"o":"m 700 -76 l 687 -79 q 670 -38 678 -79 q 659 9 662 3 q 635 -24 642 4 q 627 -88 627 -52 q 629 -111 629 -105 l 629 -144 q 614 -62 620 -133 q 600 18 608 9 q 559 42 585 27 q 498 85 533 57 q 385 215 458 118 q 290 340 313 311 l 280 340 q 285 152 280 262 q 290 -4 290 42 q 286 -58 289 -28 q 269 -130 283 -88 q 245 -88 245 -114 q 249 -59 245 -78 q 253 -37 253 -40 q 233 0 253 -15 q 208 7 229 3 q 171 23 187 12 q 139 57 154 34 q 99 109 120 88 q 88 103 91 106 q 85 81 85 100 q 68 91 76 85 q 60 115 60 96 q 61 347 60 205 q 63 581 63 489 q 46 616 58 602 q 34 639 34 630 q 72 711 55 654 q 88 858 88 768 l 85 873 l 69 873 q 59 814 63 846 q 55 744 55 783 l 36 739 q 29 754 33 745 q 25 768 25 763 q 45 940 25 904 q 108 998 81 973 q 129 1026 126 1013 q 132 1051 132 1039 q 153 1058 139 1058 q 180 1054 160 1058 q 213 1051 201 1049 q 284 1070 222 1052 q 356 1088 347 1088 q 560 991 464 1088 q 642 781 642 908 q 607 608 642 670 q 418 458 572 545 q 615 247 537 346 q 700 67 700 139 l 700 -76 m 714 -207 l 702 -211 q 685 -192 690 -199 q 668 -136 668 -165 q 676 -96 672 -117 q 696 -129 691 -112 q 714 -183 709 -177 l 714 -207 m 265 -229 l 251 -229 l 238 -211 q 240 -203 238 -210 q 242 -178 242 -196 l 260 -178 l 265 -229 m 85 -22 q 78 -45 85 -31 q 70 -72 70 -58 q 75 -100 70 -82 l 64 -105 q 49 -91 52 -105 q 45 -58 45 -76 q 49 -34 45 -48 q 60 33 60 -1 q 79 10 72 22 q 85 -22 85 -3 m 474 861 q 450 912 474 898 q 376 926 427 926 q 301 916 331 926 q 250 856 250 898 q 260 727 250 798 q 275 650 271 657 q 353 690 314 669 q 474 861 474 760 z "},"s":{"ha":712,"x_min":22,"x_max":687,"o":"m 687 317 q 676 227 687 265 q 657 160 666 190 q 620 69 644 99 q 567 25 593 46 q 561 0 561 18 q 569 -66 566 -37 q 572 -130 572 -94 q 563 -165 572 -151 q 536 -178 554 -178 q 519 -165 525 -178 q 513 -141 513 -151 q 524 -112 521 -123 q 536 -48 536 -75 q 525 -36 528 -42 q 513 16 513 -16 q 501 21 504 21 q 465 -31 474 21 q 447 -135 455 -84 q 427 -82 427 -121 q 430 -42 427 -70 q 433 4 433 -13 q 382 3 413 4 q 331 1 350 1 q 155 71 222 1 q 58 141 88 141 q 40 201 58 168 q 22 259 22 233 q 37 305 22 278 q 66 332 51 332 q 177 262 94 332 q 254 192 204 239 q 302 222 284 210 q 389 301 356 260 q 421 358 398 311 q 467 455 443 406 l 467 489 q 452 495 459 492 q 380 456 404 470 q 299 394 305 412 q 299 379 299 391 q 298 365 298 367 q 299 328 298 346 q 304 269 299 310 q 290 260 296 265 q 267 272 277 260 q 257 308 257 284 q 277 374 257 322 q 287 406 287 403 q 230 445 287 416 q 139 534 165 477 q 106 616 132 548 q 81 705 81 684 q 96 769 88 745 q 154 899 118 843 q 290 1016 193 952 q 425 1070 371 1070 q 564 991 483 1070 q 657 829 632 925 q 673 789 660 816 q 687 760 687 763 q 665 730 672 742 q 641 662 641 691 q 659 621 651 639 q 668 587 668 603 q 657 549 660 567 l 633 549 q 626 583 627 569 q 624 615 624 597 q 626 646 624 629 q 630 684 627 663 q 621 718 630 705 q 584 744 612 730 q 504 824 533 768 q 447 934 474 880 q 362 819 421 919 q 278 644 304 720 l 278 606 q 372 635 337 626 q 425 645 407 645 q 576 570 492 645 q 687 317 687 471 m 450 -207 q 444 -225 450 -220 q 433 -233 437 -230 q 412 -199 412 -213 q 413 -193 413 -195 q 424 -163 422 -171 q 443 -172 433 -168 q 450 -207 450 -180 z "},"t":{"ha":760,"x_min":24,"x_max":742,"o":"m 669 757 l 647 757 l 653 793 l 665 793 l 669 757 m 742 925 q 727 797 742 898 q 702 678 712 696 q 679 693 682 690 q 672 715 672 700 q 697 795 672 721 q 711 843 711 834 q 693 883 711 861 q 678 858 678 868 q 673 822 678 834 l 660 822 l 660 846 q 651 895 660 886 q 599 904 642 904 l 442 904 l 442 772 l 473 427 l 473 310 q 471 279 471 292 q 470 257 470 266 q 471 210 470 224 q 474 181 471 195 q 458 109 465 138 q 404 -42 436 27 q 401 -60 401 -48 q 405 -94 401 -69 q 409 -135 409 -118 q 406 -190 409 -175 q 382 -205 403 -205 q 366 -186 371 -205 q 361 -148 361 -168 q 373 -91 361 -112 q 400 -46 386 -69 q 385 5 400 -12 q 344 36 371 22 q 331 -7 331 9 q 334 -31 334 -24 q 323 -55 334 -43 q 272 123 299 42 q 238 343 238 224 l 278 923 q 129 947 192 923 q 24 1037 49 977 l 24 1054 q 120 1075 73 1067 q 219 1084 168 1084 q 360 1086 280 1084 q 450 1088 440 1088 q 659 1067 606 1088 q 742 925 742 1034 m 331 -154 l 317 -157 q 314 -121 317 -145 q 311 -93 311 -97 q 331 -106 322 -97 l 331 -154 m 331 -293 l 311 -293 q 301 -268 301 -271 q 307 -247 305 -254 q 331 -271 323 -254 l 331 -293 z "},"u":{"ha":617,"x_min":21,"x_max":605,"o":"m 591 -13 l 563 0 q 555 -68 558 -27 q 552 -198 552 -109 q 538 -112 548 -189 q 506 -4 528 -36 q 477 16 501 3 q 455 28 470 21 q 430 57 439 43 q 416 70 422 70 q 371 51 386 58 q 326 0 326 25 l 361 -156 q 344 -159 352 -157 q 326 -133 332 -159 q 308 -99 319 -108 l 308 -169 q 329 -205 329 -186 q 327 -216 329 -213 q 322 -226 325 -220 l 299 -226 q 296 -112 299 -172 q 284 -28 292 -52 q 236 33 272 7 q 118 127 135 105 q 37 308 57 214 q 21 510 28 409 q 37 635 24 533 q 46 759 46 699 q 46 858 46 817 q 48 937 46 898 q 62 1030 48 976 q 97 1085 76 1085 q 198 949 166 1085 q 219 735 219 856 l 219 504 q 247 316 219 416 q 334 193 281 193 q 388 216 371 193 q 400 263 400 232 q 397 299 400 283 q 392 326 394 314 q 395 649 392 439 q 398 891 398 859 q 414 1021 398 959 q 453 1082 430 1082 q 543 966 509 1082 q 576 623 576 850 q 575 511 576 566 q 575 406 575 456 q 578 241 575 317 q 591 61 581 165 q 597 27 594 43 q 591 -13 597 15 m 605 -60 q 596 -85 599 -75 l 581 -85 l 581 -33 l 591 -24 q 605 -60 605 -55 z "},"v":{"ha":730,"x_min":25,"x_max":712,"o":"m 688 533 q 665 474 688 495 l 650 474 l 639 521 q 645 545 644 537 q 660 582 653 567 l 675 582 q 685 558 681 570 q 688 533 688 546 m 712 873 l 679 621 l 650 621 q 653 657 651 626 q 656 703 656 688 q 650 754 656 738 l 468 138 q 495 67 488 91 q 501 31 501 43 q 495 -19 501 21 q 479 -130 479 -129 l 468 -133 q 452 -77 462 -133 q 395 -21 442 -21 q 374 -62 380 -21 q 349 -103 368 -103 q 332 -94 335 -103 q 328 -63 328 -85 l 328 -40 q 326 1 328 -13 q 313 36 323 16 q 275 91 293 63 q 241 174 263 120 q 184 323 199 271 q 151 458 168 391 q 84 721 126 545 q 25 1034 25 967 q 36 1072 25 1057 q 66 1088 46 1088 q 138 1027 91 1088 q 259 778 204 940 l 370 449 q 446 651 379 467 q 483 754 482 750 q 510 841 494 790 q 555 959 534 914 q 579 1007 567 988 q 620 1042 600 1042 q 666 1009 651 1025 q 712 873 712 958 m 477 -198 q 475 -227 477 -211 q 459 -260 473 -242 q 440 -239 440 -247 q 442 -220 442 -229 q 447 -187 442 -202 q 455 -160 452 -172 l 470 -160 q 477 -198 477 -175 m 374 -193 q 370 -207 370 -201 l 350 -207 q 346 -193 347 -199 l 350 -174 l 365 -174 q 372 -184 370 -181 q 374 -193 374 -187 m 654 759 l 654 774 l 654 759 z "},"w":{"ha":1000,"x_min":15,"x_max":973,"o":"m 973 962 q 929 618 973 841 q 843 235 904 486 q 786 -1 787 6 q 784 -22 784 -7 q 792 -63 784 -43 q 799 -81 795 -72 q 793 -101 799 -90 q 786 -117 787 -112 q 784 -130 784 -121 q 792 -175 784 -132 q 795 -214 795 -192 l 783 -220 q 762 -207 771 -220 q 753 -181 753 -195 q 768 -154 753 -178 q 775 -130 775 -142 q 753 -90 775 -106 q 702 -66 738 -79 q 698 -160 702 -108 q 688 -224 694 -213 l 673 -224 q 662 -137 663 -210 q 650 10 660 -64 q 627 88 647 33 q 606 142 617 115 q 575 247 587 208 q 491 507 506 473 q 450 403 480 497 q 415 214 415 289 q 424 179 415 202 q 447 127 434 156 q 452 84 452 109 q 445 7 452 51 q 434 -75 439 -37 q 445 -132 439 -102 q 450 -189 450 -162 q 449 -202 450 -192 q 447 -229 447 -213 l 436 -232 q 401 -208 413 -217 q 355 -150 364 -178 l 355 -93 l 377 -93 l 397 -126 q 411 -79 407 -108 q 415 -13 415 -49 q 406 4 409 -1 q 391 -36 392 -9 q 388 -70 389 -63 l 373 -70 q 302 40 355 10 q 245 80 248 70 q 241 106 241 90 q 240 135 241 121 q 233 175 239 150 q 199 293 229 186 q 159 453 169 401 q 114 625 148 504 q 47 864 79 745 q 15 1007 15 983 q 28 1030 15 1019 q 51 1042 40 1042 q 150 941 111 1042 q 195 822 172 882 q 243 697 219 766 q 278 573 268 629 l 289 564 q 328 685 298 581 q 373 822 349 760 q 421 986 382 843 q 474 1054 439 1054 q 558 940 507 1054 q 618 765 603 840 q 663 593 624 735 q 702 455 675 546 q 736 585 708 468 q 790 786 736 587 q 823 911 811 864 q 846 1016 843 991 q 855 1070 850 1042 q 891 1094 865 1094 q 961 1058 941 1094 q 973 988 973 1036 l 973 962 z "},"x":{"ha":641,"x_min":21,"x_max":620,"o":"m 620 37 q 614 -30 620 28 q 603 -94 608 -88 l 579 -94 q 590 -63 590 -81 q 587 -40 590 -54 q 579 15 579 -6 q 531 6 555 10 q 418 75 467 6 q 350 186 383 130 q 286 94 334 172 q 232 -24 232 6 q 244 -73 232 -31 q 259 -121 250 -93 l 259 -150 l 244 -153 q 210 -128 217 -153 q 202 -55 202 -103 l 202 -36 q 195 28 202 6 q 162 49 187 49 q 141 10 141 49 q 150 -57 141 -16 q 160 -103 154 -79 l 138 -103 q 123 -69 127 -88 q 118 -31 118 -49 q 120 -1 118 -22 q 121 30 121 19 q 118 61 121 40 q 103 120 111 90 q 165 295 103 156 q 226 452 226 434 q 174 594 226 461 q 75 846 85 819 q 21 1010 21 989 q 69 1075 21 1075 q 213 920 121 1075 q 332 715 272 817 q 391 859 344 739 q 446 992 419 932 q 476 1055 473 1051 q 522 1090 497 1090 q 579 1060 551 1090 q 608 1001 608 1030 l 620 723 l 620 706 q 617 682 620 691 q 608 665 615 673 q 577 693 585 676 q 569 735 569 709 q 579 810 569 751 q 585 858 585 843 q 575 905 585 885 q 494 673 558 883 q 433 470 473 605 q 525 280 479 377 q 620 37 620 82 m 611 -213 l 608 -226 l 594 -226 q 587 -216 588 -219 q 579 -180 579 -205 l 584 -154 q 605 -177 599 -163 q 611 -213 611 -192 m 165 -196 l 156 -213 q 130 -174 130 -195 q 138 -150 136 -159 q 165 -196 165 -165 z "},"y":{"ha":748,"x_min":21,"x_max":730,"o":"m 730 597 q 717 570 730 591 q 695 589 703 576 q 687 630 687 602 q 688 646 687 638 q 696 669 688 654 l 708 669 q 724 638 717 659 q 730 597 730 617 m 730 742 q 722 729 724 735 q 708 723 720 723 q 691 740 694 723 q 687 810 687 757 l 687 883 l 678 893 q 617 747 666 885 q 569 594 569 609 q 588 518 569 579 q 600 483 597 489 l 600 376 l 579 371 q 552 424 557 371 q 540 488 546 476 q 456 290 495 425 q 370 -40 413 124 l 356 -40 q 340 -9 346 -24 q 331 19 335 6 q 309 -22 313 9 q 305 -84 305 -52 l 292 -84 q 281 -24 284 -52 q 278 22 278 4 q 279 52 278 43 q 283 67 280 60 q 244 114 262 91 q 208 204 208 160 q 256 392 208 220 q 304 576 304 564 q 224 691 304 581 q 111 865 171 766 q 63 940 84 905 q 21 1031 21 1009 q 54 1061 21 1042 q 96 1075 78 1075 q 208 997 123 1075 q 389 801 293 919 q 485 968 467 943 q 626 1085 563 1085 q 705 1057 681 1085 q 723 998 723 1036 q 721 972 723 985 q 717 947 718 959 q 724 891 717 916 q 730 859 730 865 l 730 742 m 379 -157 q 367 -159 373 -159 q 358 -159 361 -159 q 340 -157 343 -159 l 340 -88 l 350 -79 l 365 -79 q 379 -132 371 -109 l 379 -157 z "},"z":{"ha":856,"x_min":25,"x_max":835,"o":"m 835 111 q 807 6 835 70 q 792 -55 792 -27 q 799 -84 798 -73 q 807 -130 807 -115 q 801 -177 807 -160 q 774 -195 795 -195 q 751 -177 757 -195 q 744 -129 744 -159 q 751 -51 744 -97 q 759 -6 754 -28 l 748 4 q 730 -37 735 -18 q 724 -72 724 -55 q 726 -94 726 -88 q 721 -115 726 -106 l 705 -115 q 706 -85 702 -106 q 711 -55 711 -64 q 695 -4 711 -28 q 650 19 679 19 q 615 14 630 19 q 585 4 600 9 l 325 4 q 302 -31 316 -9 q 281 -63 296 -42 q 295 -105 290 -90 q 308 -189 308 -154 q 305 -216 308 -208 q 283 -223 302 -223 q 254 -177 254 -223 q 264 -108 254 -154 q 269 -57 274 -61 q 230 -40 260 -45 q 195 -34 201 -36 q 153 1 163 -22 q 135 37 138 34 q 102 48 114 43 q 25 144 25 82 q 58 172 25 160 q 178 286 142 202 l 281 498 q 344 615 316 566 q 397 709 382 678 q 450 813 425 774 q 531 905 486 870 l 531 928 l 308 928 q 239 941 292 928 q 156 970 186 953 q 144 949 150 959 q 168 874 160 899 q 193 783 193 793 q 186 766 193 775 q 168 757 178 757 q 123 854 150 757 q 97 977 97 950 q 222 1051 97 1018 q 510 1085 346 1085 q 711 1047 609 1085 q 813 967 813 1009 q 792 935 813 943 q 745 928 772 928 q 726 928 735 928 q 701 891 711 920 q 682 834 691 861 q 644 738 660 781 q 608 645 611 651 q 503 394 531 461 q 445 253 453 277 l 519 253 q 572 253 546 253 q 660 246 597 253 q 771 214 723 239 q 835 111 835 178 m 216 648 q 207 623 216 641 l 189 623 q 184 630 186 627 q 172 654 172 650 l 189 684 q 207 667 198 678 q 216 648 216 656 z "},"{":{"ha":407,"x_min":0,"x_max":0,"o":""},"|":{"ha":1389,"x_min":551,"x_max":736,"o":"m 551 1131 l 736 1131 l 736 -48 l 551 -48 l 551 1131 z "},"}":{"ha":407,"x_min":0,"x_max":0,"o":""},"~":{"ha":407,"x_min":0,"x_max":0,"o":""},"":{"ha":305,"x_min":24,"x_max":281,"o":"m 281 929 q 244 814 281 849 q 157 787 214 787 q 72 820 114 787 q 24 907 24 858 q 80 1027 24 934 q 172 1119 136 1119 q 216 1085 216 1119 q 184 1040 216 1066 q 168 1013 168 1027 q 224 979 168 1000 q 281 929 281 958 z "},"":{"ha":305,"x_min":24,"x_max":281,"o":"m 281 1007 q 232 895 281 980 q 133 796 175 796 q 98 803 106 796 q 90 831 90 810 q 121 870 90 841 q 138 902 138 885 q 81 935 138 917 q 24 986 24 953 q 66 1102 24 1066 q 148 1128 97 1128 q 244 1084 202 1128 q 281 1007 281 1043 z "},"":{"ha":611,"x_min":30,"x_max":587,"o":"m 587 929 q 549 814 587 849 q 462 787 519 787 q 377 820 419 787 q 329 907 329 858 q 385 1027 329 934 q 477 1119 442 1119 q 521 1085 521 1119 q 489 1040 521 1066 q 473 1013 473 1027 q 530 979 473 1000 q 587 929 587 958 m 287 929 q 250 814 287 849 q 163 787 220 787 q 78 820 120 787 q 30 907 30 858 q 86 1027 30 934 q 178 1119 142 1119 q 222 1085 222 1119 q 190 1040 222 1066 q 174 1013 174 1027 q 230 979 174 1000 q 287 929 287 958 z "},"":{"ha":617,"x_min":24,"x_max":599,"o":"m 599 1001 q 549 889 599 974 q 450 790 492 790 q 415 797 424 790 q 407 825 407 804 q 439 864 407 835 q 455 896 455 879 q 398 929 455 911 q 341 980 341 947 q 383 1096 341 1060 q 465 1122 415 1122 q 561 1078 519 1122 q 599 1001 599 1037 m 281 1007 q 232 895 281 980 q 133 796 175 796 q 98 803 106 796 q 90 831 90 810 q 121 870 90 841 q 138 902 138 885 q 81 935 138 917 q 24 986 24 953 q 66 1102 24 1066 q 148 1128 97 1128 q 244 1084 202 1128 q 281 1007 281 1043 z "},"":{"ha":748,"x_min":18,"x_max":684,"o":"m 144 456 q 106 492 106 456 q 118 530 106 512 l 118 1033 l 79 1027 l 61 1022 l 48 1019 q 28 1023 34 1019 q 18 1043 21 1027 q 30 1064 18 1060 l 48 1063 q 69 1064 61 1060 l 224 1079 l 245 1090 l 268 1093 q 281 1079 277 1093 l 287 1052 q 275 1033 287 1036 q 253 1039 263 1033 l 235 1045 l 157 1033 l 157 546 q 177 491 174 516 q 144 456 177 464 m 311 474 q 310 498 304 480 l 317 525 l 317 1043 q 313 1057 313 1051 q 319 1076 313 1069 q 334 1088 320 1084 q 367 1079 352 1091 q 382 1051 382 1067 l 380 1028 l 379 1003 q 382 976 379 983 l 485 597 l 606 1033 l 608 1064 q 617 1093 608 1090 l 633 1099 q 662 1088 647 1099 q 673 1058 673 1076 q 666 1036 673 1049 l 666 548 q 676 516 666 536 q 682 504 679 512 q 684 488 684 495 q 656 473 679 473 q 627 477 641 473 q 618 492 620 482 l 623 518 l 627 537 l 627 974 l 528 588 l 528 549 q 512 493 524 515 q 473 471 500 471 q 454 484 459 471 q 449 521 449 497 l 449 555 q 446 588 449 581 l 356 938 l 356 542 q 361 522 356 530 q 368 509 367 513 q 371 501 370 504 q 362 480 371 491 q 334 468 353 468 q 311 474 322 468 z "},"":{"ha":712,"x_min":21,"x_max":691,"o":"m 691 537 q 684 524 691 530 q 666 518 676 518 q 641 532 648 518 q 633 554 633 546 q 638 572 633 563 l 638 626 q 560 651 594 626 q 486 738 540 666 l 486 362 q 566 412 515 371 q 605 425 584 425 q 656 395 635 425 q 676 317 676 365 l 657 64 l 638 64 q 623 126 623 99 q 632 159 623 141 q 641 186 641 177 q 623 226 641 201 l 554 187 q 515 168 543 181 q 491 157 507 165 q 486 141 486 148 q 491 118 486 133 q 495 94 495 103 q 485 46 495 72 q 456 -9 470 18 q 464 -36 461 -25 q 473 -70 473 -60 q 450 -90 473 -90 q 428 -41 430 -90 q 413 25 427 7 q 394 15 403 19 q 353 57 377 15 q 305 153 329 105 q 242 174 269 165 q 174 219 214 184 q 85 331 135 253 q 21 498 21 431 q 64 620 21 545 q 139 718 102 684 q 281 828 193 768 q 329 888 329 861 q 353 1028 329 950 q 394 1087 371 1087 q 453 1016 434 1087 q 467 949 461 988 q 494 920 468 937 q 594 841 540 891 q 679 650 679 762 q 679 629 679 639 q 676 606 676 614 q 675 587 675 599 q 683 562 675 573 q 691 537 691 551 m 398 -141 q 377 -88 377 -115 q 379 -70 377 -76 q 394 -18 386 -43 q 410 -87 410 -34 q 398 -141 410 -121 m 320 641 q 251 549 284 609 q 204 437 204 464 q 233 364 204 382 q 296 328 263 346 l 319 328 l 320 641 z "},"":{"ha":720,"x_min":-1,"x_max":651,"o":"m 344 594 q 236 662 287 594 q 184 801 184 729 q 233 929 184 867 q 344 992 283 992 q 412 963 379 992 q 446 901 446 934 l 453 870 q 446 855 449 858 q 424 846 437 846 q 403 858 410 846 q 409 893 398 862 q 382 929 400 913 q 341 946 365 946 q 277 896 311 946 q 244 798 244 843 q 277 698 244 753 q 341 644 310 644 q 379 659 359 644 q 397 676 388 665 q 412 699 406 688 q 415 732 409 718 q 431 747 416 744 q 453 724 453 747 q 443 685 453 706 q 405 623 439 653 q 344 594 371 594 m 175 1001 q 95 908 123 962 q 67 790 67 855 q 108 650 67 712 q 207 562 150 591 q 325 533 263 533 q 466 575 406 533 q 555 676 527 618 q 584 792 584 735 q 541 932 584 870 q 442 1021 498 994 q 325 1049 386 1049 q 175 1001 244 1049 m 106 1031 q 325 1114 199 1114 q 457 1087 397 1114 q 587 985 518 1060 q 651 786 651 908 q 625 655 651 715 q 525 527 599 594 q 325 459 450 459 q 193 488 259 459 q 129 528 162 503 q 64 590 97 554 q -1 787 -1 665 q 26 918 -1 856 q 106 1031 54 980 z "},"":{"ha":720,"x_min":-1,"x_max":651,"o":"m 175 1001 q 95 908 123 962 q 67 790 67 855 q 108 650 67 712 q 207 562 150 591 q 325 533 263 533 q 466 575 406 533 q 555 676 527 618 q 584 792 584 735 q 541 932 584 870 q 442 1021 498 994 q 325 1049 386 1049 q 175 1001 244 1049 m 106 1031 q 325 1114 199 1114 q 457 1087 397 1114 q 587 985 518 1060 q 651 786 651 908 q 625 655 651 715 q 525 527 599 594 q 325 459 450 459 q 193 488 259 459 q 129 528 162 503 q 64 590 97 554 q -1 787 -1 665 q 26 918 -1 856 q 106 1031 54 980 m 244 572 l 250 596 l 250 970 l 245 983 l 242 994 l 251 1007 q 278 1013 257 1013 l 316 1027 l 352 1031 q 411 1006 386 1031 q 436 916 436 980 q 406 823 436 865 q 326 736 377 781 l 416 636 l 437 623 q 453 599 453 612 q 439 578 453 588 q 409 570 424 567 q 388 608 388 579 l 293 715 l 293 599 l 296 581 q 294 566 299 572 q 274 558 289 561 q 244 572 248 558 m 293 759 q 368 832 343 795 q 388 872 382 853 q 395 911 395 891 q 385 974 395 956 q 355 992 374 991 l 323 983 l 293 971 l 293 759 z "}}}
